<?xml version="1.0" encoding="utf-8"?>
<!-- Generator: Adobe Illustrator 27.3.1, SVG Export Plug-In . SVG Version: 6.00 Build 0)  -->
<svg version="1.1" id="Layer_1" xmlns="http://www.w3.org/2000/svg" xmlns:xlink="http://www.w3.org/1999/xlink" x="0px" y="0px"
	 width="301.33px" height="382.94px" viewBox="0 0 301.33 382.94" style="enable-background:new 0 0 301.33 382.94;"
	 xml:space="preserve">
<style type="text/css">
	
		.st0{fill:url(#path857-3-6_00000045605176680315765920000017226422724933247414_);stroke:#010101;stroke-width:0.4;stroke-miterlimit:17.7256;}
	.st1{fill:url(#SVGID_1_);}
	.st2{opacity:0.5;fill:url(#SVGID_00000034058474842198221810000011449931305305316997_);}
	.st3{fill:none;stroke:#010101;stroke-width:0.4;stroke-miterlimit:17.7256;}
	.st4{fill:none;}
	.st5{font-family:'SourceSansPro-Light';}
	.st6{font-size:14px;}
	
		.st7{fill:url(#path857-3-6_00000176750720699430707920000016972580576015853757_);stroke:#010101;stroke-width:0.4;stroke-miterlimit:17.7256;}
	
		.st8{fill:url(#SVGID_00000049214254124806666580000007507355794489603226_);stroke:#010101;stroke-width:0.4;stroke-linejoin:round;stroke-miterlimit:17.7256;}
	
		.st9{fill:url(#SVGID_00000140008433108442099410000010503597088458983084_);stroke:#010101;stroke-width:0.4;stroke-miterlimit:17.7256;}
	
		.st10{fill:url(#SVGID_00000041271021537617510990000004450485780339409299_);stroke:#010101;stroke-width:0.4;stroke-miterlimit:17.7256;}
	.st11{fill:none;stroke:#010101;stroke-miterlimit:17.7256;}
	.st12{fill:#010101;}
	
		.st13{fill:url(#SVGID_00000158712847572533578240000011902506197838217095_);stroke:#010101;stroke-width:0.4;stroke-linejoin:round;stroke-miterlimit:17.7256;}
	.st14{fill:#2B2B2B;stroke:#010101;stroke-width:0.5;stroke-linejoin:round;stroke-miterlimit:17.7256;}
	.st15{fill:#EE2334;}
	.st16{font-family:'SevenSegmentRegular';}
	.st17{font-size:13.1733px;}
	.st18{fill:none;stroke:#010101;stroke-width:0.5;stroke-miterlimit:17.7256;}
	
		.st19{fill:url(#SVGID_00000181786890913923390230000009720508301425155240_);stroke:#010101;stroke-width:0.4;stroke-miterlimit:17.7256;}
	.st20{fill:none;stroke:#010101;stroke-width:0.5;stroke-miterlimit:17.7256;stroke-dasharray:3.1496,3.1496;}
</style>
<linearGradient id="path857-3-6_00000171685489881548600760000015370798835328906147_" gradientUnits="userSpaceOnUse" x1="104.1735" y1="192.1684" x2="197.049" y2="192.1684">
	<stop  offset="0.0197" style="stop-color:#000000"/>
	<stop  offset="0.0929" style="stop-color:#454545"/>
	<stop  offset="0.3119" style="stop-color:#0D0D0D"/>
	<stop  offset="0.813" style="stop-color:#0D0D0D"/>
	<stop  offset="0.9454" style="stop-color:#4B4B4D"/>
	<stop  offset="1" style="stop-color:#000000"/>
</linearGradient>
<path id="path857-3-6_00000053535895610640578910000012166985117976145809_" style="fill:url(#path857-3-6_00000171685489881548600760000015370798835328906147_);stroke:#010101;stroke-width:0.4;stroke-miterlimit:17.7256;" d="
	M186.07,218.06c0,0,10.45,0.02,10.45,0.02c0.54,0,0.98-0.44,0.98-0.98c0,0,0,0,0,0v-50.83l-89.95,0l0.01,50.86
	c0,0.52,0.42,0.95,0.95,0.95l0,0h10.41L186.07,218.06"/>
<g id="rect35513">
	<linearGradient id="SVGID_1_" gradientUnits="userSpaceOnUse" x1="93.471" y1="88.1876" x2="211.5808" y2="88.1876">
		<stop  offset="0" style="stop-color:#000000"/>
		<stop  offset="0.0377" style="stop-color:#454545"/>
		<stop  offset="0.1016" style="stop-color:#0D0D0D"/>
		<stop  offset="0.8987" style="stop-color:#0D0D0D"/>
		<stop  offset="0.9566" style="stop-color:#4B4B4D"/>
		<stop  offset="1" style="stop-color:#000000"/>
	</linearGradient>
	<path class="st1" d="M208.68,166.2H96.37c-1.6,0-2.9-1.3-2.9-2.9V13.08c0-1.6,1.3-2.9,2.9-2.9l112.31,0c1.6,0,2.9,1.3,2.9,2.9
		V163.3C211.58,164.9,210.28,166.2,208.68,166.2z"/>
	
		<linearGradient id="SVGID_00000183951908445590686930000006509582174773940101_" gradientUnits="userSpaceOnUse" x1="152.5259" y1="17.0541" x2="152.5259" y2="156.7122">
		<stop  offset="0" style="stop-color:#FFFFFF;stop-opacity:0.1"/>
		<stop  offset="0.7648" style="stop-color:#7E7E7E;stop-opacity:0"/>
	</linearGradient>
	<path style="opacity:0.5;fill:url(#SVGID_00000183951908445590686930000006509582174773940101_);" d="M208.68,166.2H96.37
		c-1.6,0-2.9-1.3-2.9-2.9V13.08c0-1.6,1.3-2.9,2.9-2.9l112.31,0c1.6,0,2.9,1.3,2.9,2.9V163.3
		C211.58,164.9,210.28,166.2,208.68,166.2z"/>
	<path class="st3" d="M208.68,166.2H96.37c-1.6,0-2.9-1.3-2.9-2.9V13.08c0-1.6,1.3-2.9,2.9-2.9l112.31,0c1.6,0,2.9,1.3,2.9,2.9
		V163.3C211.58,164.9,210.28,166.2,208.68,166.2z"/>
</g>
<rect x="220.7" y="14.77" class="st4" width="11.06" height="177.4"/>
<text transform="matrix(0 1 -1 0 221.6767 14.7686)" class="st5 st6">Hyperspectral Thermal Camera</text>
<linearGradient id="path857-3-6_00000176750021713866270650000015642147736482608317_" gradientUnits="userSpaceOnUse" x1="110.8943" y1="225.5744" x2="192.0863" y2="225.5744">
	<stop  offset="0" style="stop-color:#000000"/>
	<stop  offset="0.0929" style="stop-color:#454545"/>
	<stop  offset="0.3119" style="stop-color:#0D0D0D"/>
	<stop  offset="0.813" style="stop-color:#0D0D0D"/>
	<stop  offset="0.9454" style="stop-color:#4B4B4D"/>
	<stop  offset="1" style="stop-color:#000000"/>
</linearGradient>
<path id="path857-3-6_00000085229953639473799650000016913572692524523711_" style="fill:url(#path857-3-6_00000176750021713866270650000015642147736482608317_);stroke:#010101;stroke-width:0.4;stroke-miterlimit:17.7256;" d="
	M181.6,233.07c0,0,9.06,0,9.06,0c0.47,0,0.85-0.13,0.85-0.28c0,0,0,0,0,0v-14.72l-77.96,0l0.01,14.73c0,0.15,0.37,0.27,0.82,0.27
	l0,0h9.02L181.6,233.07"/>
<linearGradient id="SVGID_00000100364068235111093670000001921289064608223932_" gradientUnits="userSpaceOnUse" x1="116.9875" y1="366.0658" x2="185.7169" y2="297.3363">
	<stop  offset="0.1097" style="stop-color:#F2FAFD"/>
	<stop  offset="1" style="stop-color:#9BA3A5"/>
</linearGradient>
<rect x="94.76" y="319.44" style="fill:url(#SVGID_00000100364068235111093670000001921289064608223932_);stroke:#010101;stroke-width:0.4;stroke-linejoin:round;stroke-miterlimit:17.7256;" width="115.52" height="22.18"/>
<radialGradient id="SVGID_00000065796986465915358230000005638681674476387970_" cx="175.1363" cy="314.026" r="11.6821" gradientUnits="userSpaceOnUse">
	<stop  offset="0.0643" style="stop-color:#C4E7E7"/>
	<stop  offset="0.2069" style="stop-color:#7BCDCA"/>
	<stop  offset="0.6513" style="stop-color:#1D9387"/>
</radialGradient>
<path style="fill:url(#SVGID_00000065796986465915358230000005638681674476387970_);stroke:#010101;stroke-width:0.4;stroke-miterlimit:17.7256;" d="
	M178.02,310.94c-4.69,0-8.5,3.8-8.5,8.5h16.99C186.51,314.75,182.71,310.94,178.02,310.94z"/>
<radialGradient id="SVGID_00000116952984697502194210000009805451129160562101_" cx="124.1566" cy="314.026" r="11.6821" gradientUnits="userSpaceOnUse">
	<stop  offset="0.0587" style="stop-color:#F5CBCA"/>
	<stop  offset="0.1667" style="stop-color:#F69B99"/>
	<stop  offset="0.6513" style="stop-color:#93211E"/>
</radialGradient>
<path style="fill:url(#SVGID_00000116952984697502194210000009805451129160562101_);stroke:#010101;stroke-width:0.4;stroke-miterlimit:17.7256;" d="
	M127.04,310.94c-4.69,0-8.5,3.8-8.5,8.5h16.99C135.53,314.75,131.73,310.94,127.04,310.94z"/>
<g>
	<g>
		<line class="st11" x1="210.29" y1="240.14" x2="210.29" y2="312.38"/>
		<g>
			<polygon class="st12" points="210.29,233.08 206.22,243.03 210.29,240.67 214.35,243.03 			"/>
		</g>
		<g>
			<polygon class="st12" points="210.29,319.44 206.22,309.49 210.29,311.85 214.35,309.49 			"/>
		</g>
	</g>
</g>
<rect x="215.2" y="270.2" class="st4" width="44.36" height="12.12"/>
<text transform="matrix(1 0 0 1 215.2043 280.2768)" class="st5 st6">40 cm</text>
<linearGradient id="SVGID_00000047766432845181515660000012929114613908502184_" gradientUnits="userSpaceOnUse" x1="152.5259" y1="344.5204" x2="152.5259" y2="360.1606">
	<stop  offset="0" style="stop-color:#D9E7E7"/>
	<stop  offset="1" style="stop-color:#97C1BD"/>
</linearGradient>
<polygon style="fill:url(#SVGID_00000047766432845181515660000012929114613908502184_);stroke:#010101;stroke-width:0.4;stroke-linejoin:round;stroke-miterlimit:17.7256;" points="
	219.02,341.62 152.53,341.62 86.03,341.62 73.29,362.89 152.53,362.89 231.76,362.89 "/>
<polygon class="st14" points="183.79,345.25 169.67,345.25 121.26,345.25 112.87,359.26 169.67,359.26 169.67,359.26 192.18,359.26 
	"/>
<rect x="104.41" y="348.13" class="st4" width="96.23" height="9.36"/>
<text transform="matrix(1 0 0 1 141.2561 357.3485)" class="st15 st16 st17">70 C</text>
<rect x="102.84" y="362.89" width="3.14" height="7.22"/>
<rect x="95.98" y="370.1" width="16.87" height="2.64"/>
<rect x="199.07" y="362.89" width="3.14" height="7.22"/>
<rect x="192.21" y="370.1" width="16.87" height="2.64"/>
<line class="st18" x1="71" y1="372.74" x2="234.05" y2="372.74"/>
<radialGradient id="SVGID_00000131332015981485449560000005187592091818107542_" cx="149.6465" cy="314.026" r="11.6821" gradientUnits="userSpaceOnUse">
	<stop  offset="0.0622" style="stop-color:#EEEAE4"/>
	<stop  offset="0.2111" style="stop-color:#EECF9A"/>
	<stop  offset="0.6513" style="stop-color:#DD9927"/>
</radialGradient>
<path style="fill:url(#SVGID_00000131332015981485449560000005187592091818107542_);stroke:#010101;stroke-width:0.4;stroke-miterlimit:17.7256;" d="
	M152.53,310.94c-4.69,0-8.5,3.8-8.5,8.5h16.99C161.02,314.75,157.22,310.94,152.53,310.94z"/>
<g>
	<g>
		<line class="st18" x1="191.5" y1="232.79" x2="193" y2="232.82"/>
		<line class="st20" x1="196.15" y1="232.86" x2="207.18" y2="233.03"/>
		<line class="st18" x1="208.75" y1="233.05" x2="210.25" y2="233.08"/>
	</g>
</g>
<rect x="35.86" y="172.83" class="st4" width="61.68" height="38.69"/>
<text transform="matrix(1 0 0 1 56.4227 184.4455)"><tspan x="0" y="0" class="st5 st6">Ge lens </tspan><tspan x="-1.22" y="12" class="st5 st6">and FPI </tspan><tspan x="-12.08" y="24" class="st5 st6">assembly</tspan></text>
<rect y="301.22" class="st4" width="95.98" height="39.51"/>
<text transform="matrix(1 0 0 1 4.3809 312.8438)"><tspan x="0" y="0" class="st5 st6">Plastic samples </tspan><tspan x="5.64" y="12" class="st5 st6">on aluminum </tspan><tspan x="19.59" y="24" class="st5 st6">hotplate</tspan></text>
<g>
	<path class="st11" d="M178.02,300.34c0-6.12,4.9-6.12,4.9-12.25c0-6.12-9.8-6.12-9.8-12.24c0-6.13,9.8-6.13,9.8-12.25
		s-4.9-6.13-4.9-12.25"/>
	<g>
		<polygon class="st12" points="178.02,244.28 182.08,254.23 178.02,251.87 173.95,254.23 		"/>
	</g>
</g>
<g>
	<path class="st11" d="M153.95,300.34c0-6.12-4.9-6.12-4.9-12.25c0-6.12,9.8-6.12,9.8-12.24c0-6.13-9.8-6.13-9.8-12.25
		s4.9-6.13,4.9-12.25"/>
	<g>
		<polygon class="st12" points="153.95,244.28 149.89,254.23 153.95,251.87 158.02,254.23 		"/>
	</g>
</g>
<g>
	<path class="st11" d="M127.04,300.34c0-6.12,4.9-6.12,4.9-12.25c0-6.12-9.8-6.12-9.8-12.24c0-6.13,9.8-6.13,9.8-12.25
		s-4.9-6.13-4.9-12.25"/>
	<g>
		<polygon class="st12" points="127.04,244.28 131.1,254.23 127.04,251.87 122.97,254.23 		"/>
	</g>
</g>
<rect x="32.67" y="263.04" class="st4" width="81.24" height="26.43"/>
<text transform="matrix(1 0 0 1 49.6143 274.6611)"><tspan x="0" y="0" class="st5 st6">Thermal</tspan><tspan x="-1.98" y="12" class="st5 st6">radiation</tspan></text>
</svg>
