<?xml version="1.0" standalone="no"?>
<!DOCTYPE svg PUBLIC "-//W3C//DTD SVG 20010904//EN"
 "http://www.w3.org/TR/2001/REC-SVG-20010904/DTD/svg10.dtd">
<svg version="1.0" xmlns="http://www.w3.org/2000/svg"
 width="700.000000pt" height="700.000000pt" viewBox="0 0 700.000000 700.000000"
 preserveAspectRatio="xMidYMid meet">
<metadata>
Created by potrace 1.14, written by Peter Selinger 2001-2017
</metadata>
<g transform="translate(0.000000,700.000000) scale(0.100000,-0.100000)"
fill="#000000" stroke="none">
<path d="M229 5453 c-1 -5 -2 -887 -3 -1961 l-1 -1952 363 0 362 0 1 23 c0 12
0 669 1 1461 0 791 3 1434 7 1430 5 -5 27 -65 50 -134 23 -69 60 -177 83 -240
22 -63 57 -164 78 -225 21 -60 89 -254 150 -430 61 -176 129 -369 150 -430 21
-60 57 -164 80 -230 23 -66 60 -172 82 -235 22 -63 57 -164 78 -225 21 -60 89
-257 152 -437 l113 -328 299 3 299 2 104 300 c58 165 120 343 139 395 18 52
90 259 159 460 70 201 130 374 135 385 4 11 85 243 180 515 94 272 174 502
177 510 3 8 7 20 9 25 1 6 27 82 58 170 37 105 56 150 57 130 0 -16 1 -675 2
-1462 l0 -1433 31 -1 c17 0 182 -1 366 -1 l335 -1 0 1422 c0 781 1 1421 2
1421 0 0 16 -26 34 -57 50 -89 55 -99 236 -413 286 -495 618 -1072 645 -1120
14 -25 58 -101 98 -170 40 -69 84 -145 98 -170 14 -25 64 -112 112 -195 48
-82 160 -277 249 -432 l163 -283 244 0 c310 -1 484 -1 532 0 l37 0 0 1960 0
1960 -362 0 c-200 0 -363 -3 -364 -7 0 -5 -1 -644 -1 -1420 0 -777 -4 -1410
-9 -1408 -4 3 -24 36 -45 73 -21 37 -45 81 -54 97 -9 17 -62 109 -117 205 -55
96 -111 195 -125 220 -14 25 -44 77 -67 117 -22 39 -49 87 -59 105 -39 68
-400 702 -537 943 -79 138 -152 266 -162 285 -54 96 -318 561 -341 600 -35 60
-80 140 -94 168 l-11 22 -554 0 c-377 0 -553 -3 -553 -10 0 -6 -15 -52 -34
-103 -19 -51 -68 -189 -109 -307 -42 -118 -98 -280 -127 -360 -28 -80 -123
-352 -212 -605 -88 -253 -166 -473 -173 -490 -7 -16 -31 -84 -54 -150 -22 -66
-59 -172 -82 -235 -22 -63 -49 -140 -59 -170 -11 -30 -28 -80 -39 -110 -10
-30 -46 -132 -79 -227 -63 -178 -81 -222 -82 -192 0 9 -21 74 -46 145 -25 71
-70 197 -99 279 -69 195 -307 863 -350 985 -19 52 -55 154 -81 225 -25 72 -70
198 -99 280 -59 166 -127 358 -245 690 -43 121 -89 250 -102 288 l-23 67 -497
0 c-274 0 -498 -3 -499 -7z"/>
</g>
</svg>
