<?xml version="1.0" encoding="utf-8" standalone="no"?>
<!DOCTYPE svg PUBLIC "-//W3C//DTD SVG 1.1//EN"
  "http://www.w3.org/Graphics/SVG/1.1/DTD/svg11.dtd">
<svg xmlns:xlink="http://www.w3.org/1999/xlink" width="690.192905pt" height="331.232pt" viewBox="0 0 690.192905 331.232" xmlns="http://www.w3.org/2000/svg" version="1.1">
 <metadata>
  <rdf:RDF xmlns:dc="http://purl.org/dc/elements/1.1/" xmlns:cc="http://creativecommons.org/ns#" xmlns:rdf="http://www.w3.org/1999/02/22-rdf-syntax-ns#">
   <cc:Work>
    <dc:type rdf:resource="http://purl.org/dc/dcmitype/StillImage"/>
    <dc:date>2023-03-16T16:57:03.223616</dc:date>
    <dc:format>image/svg+xml</dc:format>
    <dc:creator>
     <cc:Agent>
      <dc:title>Matplotlib v3.7.0, https://matplotlib.org/</dc:title>
     </cc:Agent>
    </dc:creator>
   </cc:Work>
  </rdf:RDF>
 </metadata>
 <defs>
  <style type="text/css">*{stroke-linejoin: round; stroke-linecap: butt}</style>
 </defs>
 <g id="figure_1">
  <g id="patch_1">
   <path d="M 0 331.232 
L 690.192905 331.232 
L 690.192905 0 
L 0 0 
L 0 331.232 
z
" style="fill: none"/>
  </g>
  <g id="axes_1">
   <g id="patch_2">
    <path d="M 53.335 280.812 
L 329.391463 280.812 
L 329.391463 7.2 
L 53.335 7.2 
L 53.335 280.812 
z
" style="fill: none"/>
   </g>
   <g id="matplotlib.axis_1">
    <g id="xtick_1">
     <g id="line2d_1">
      <path d="M 55.426337 280.812 
L 55.426337 7.2 
" clip-path="url(#pc018fca5da)" style="fill: none; stroke: #939393; stroke-linecap: square"/>
     </g>
     <g id="line2d_2">
      <defs>
       <path id="m3de8729588" d="M 0 0 
L 0 3.5 
" style="stroke: #939393"/>
      </defs>
      <g>
       <use xlink:href="#m3de8729588" x="55.426337" y="280.812" style="fill: #939393; stroke: #939393"/>
      </g>
     </g>
     <g id="text_1">
      <!-- 0 -->
      <g style="fill: #343434" transform="translate(51.322587 299.107) scale(0.16 -0.16)">
       <defs>
        <path id="SourceSansPro-SemiBold-30" d="M 1638 -77 
Q 1005 -77 630 473 
Q 256 1024 256 2054 
Q 256 3085 630 3616 
Q 1005 4147 1638 4147 
Q 2272 4147 2646 3616 
Q 3021 3085 3021 2054 
Q 3021 1024 2646 473 
Q 2272 -77 1638 -77 
z
M 1638 499 
Q 1837 499 1990 649 
Q 2144 800 2230 1139 
Q 2317 1478 2317 2054 
Q 2317 2630 2230 2963 
Q 2144 3296 1990 3433 
Q 1837 3571 1638 3571 
Q 1446 3571 1292 3433 
Q 1139 3296 1049 2963 
Q 960 2630 960 2054 
Q 960 1478 1049 1139 
Q 1139 800 1292 649 
Q 1446 499 1638 499 
z
" transform="scale(0.015625)"/>
       </defs>
       <use xlink:href="#SourceSansPro-SemiBold-30"/>
      </g>
     </g>
    </g>
    <g id="xtick_2">
     <g id="line2d_3">
      <path d="M 159.993179 280.812 
L 159.993179 7.2 
" clip-path="url(#pc018fca5da)" style="fill: none; stroke: #939393; stroke-linecap: square"/>
     </g>
     <g id="line2d_4">
      <g>
       <use xlink:href="#m3de8729588" x="159.993179" y="280.812" style="fill: #939393; stroke: #939393"/>
      </g>
     </g>
     <g id="text_2">
      <!-- 10 -->
      <g style="fill: #343434" transform="translate(151.785679 299.107) scale(0.16 -0.16)">
       <defs>
        <path id="SourceSansPro-SemiBold-31" d="M 474 0 
L 474 602 
L 1382 602 
L 1382 3277 
L 634 3277 
L 634 3738 
Q 934 3795 1158 3875 
Q 1382 3955 1574 4070 
L 2125 4070 
L 2125 602 
L 2925 602 
L 2925 0 
L 474 0 
z
" transform="scale(0.015625)"/>
       </defs>
       <use xlink:href="#SourceSansPro-SemiBold-31"/>
       <use xlink:href="#SourceSansPro-SemiBold-30" x="51.299988"/>
      </g>
     </g>
    </g>
    <g id="xtick_3">
     <g id="line2d_5">
      <path d="M 264.560021 280.812 
L 264.560021 7.2 
" clip-path="url(#pc018fca5da)" style="fill: none; stroke: #939393; stroke-linecap: square"/>
     </g>
     <g id="line2d_6">
      <g>
       <use xlink:href="#m3de8729588" x="264.560021" y="280.812" style="fill: #939393; stroke: #939393"/>
      </g>
     </g>
     <g id="text_3">
      <!-- 20 -->
      <g style="fill: #343434" transform="translate(256.352521 299.107) scale(0.16 -0.16)">
       <defs>
        <path id="SourceSansPro-SemiBold-32" d="M 243 0 
L 243 429 
Q 813 979 1225 1411 
Q 1638 1843 1862 2198 
Q 2086 2554 2086 2861 
Q 2086 3181 1913 3373 
Q 1741 3565 1414 3565 
Q 1178 3565 982 3430 
Q 787 3296 621 3110 
L 211 3520 
Q 493 3821 793 3984 
Q 1094 4147 1510 4147 
Q 2099 4147 2448 3808 
Q 2797 3469 2797 2899 
Q 2797 2541 2595 2166 
Q 2394 1792 2058 1401 
Q 1722 1011 1318 582 
Q 1478 595 1664 611 
Q 1850 627 1997 627 
L 2995 627 
L 2995 0 
L 243 0 
z
" transform="scale(0.015625)"/>
       </defs>
       <use xlink:href="#SourceSansPro-SemiBold-32"/>
       <use xlink:href="#SourceSansPro-SemiBold-30" x="51.299988"/>
      </g>
     </g>
    </g>
    <g id="text_4">
     <!-- Wavelength $[µm]$ -->
     <g style="fill: #343434" transform="translate(126.653231 318.992) scale(0.18 -0.18)">
      <defs>
       <path id="SourceSansPro-SemiBold-57" d="M 947 0 
L 115 4186 
L 877 4186 
L 1242 2074 
Q 1293 1741 1347 1405 
Q 1402 1069 1446 736 
L 1472 736 
Q 1542 1069 1609 1405 
Q 1677 1741 1747 2074 
L 2259 4186 
L 2906 4186 
L 3418 2074 
Q 3488 1747 3558 1411 
Q 3629 1075 3699 736 
L 3725 736 
Q 3776 1075 3827 1408 
Q 3878 1741 3923 2074 
L 4288 4186 
L 4998 4186 
L 4198 0 
L 3277 0 
L 2758 2202 
Q 2707 2445 2659 2688 
Q 2611 2931 2573 3168 
L 2547 3168 
Q 2502 2931 2454 2688 
Q 2406 2445 2355 2202 
L 1850 0 
L 947 0 
z
" transform="scale(0.015625)"/>
       <path id="SourceSansPro-SemiBold-61" d="M 1229 -77 
Q 819 -77 560 179 
Q 301 435 301 845 
Q 301 1350 742 1628 
Q 1184 1907 2150 2010 
Q 2144 2259 2019 2441 
Q 1894 2624 1574 2624 
Q 1344 2624 1123 2534 
Q 902 2445 691 2317 
L 422 2810 
Q 685 2976 1014 3097 
Q 1344 3219 1715 3219 
Q 2304 3219 2595 2870 
Q 2886 2522 2886 1862 
L 2886 0 
L 2278 0 
L 2227 346 
L 2202 346 
Q 1990 166 1750 44 
Q 1510 -77 1229 -77 
z
M 1466 499 
Q 1658 499 1814 592 
Q 1971 685 2150 845 
L 2150 1549 
Q 1510 1466 1260 1302 
Q 1011 1139 1011 902 
Q 1011 691 1139 595 
Q 1267 499 1466 499 
z
" transform="scale(0.015625)"/>
       <path id="SourceSansPro-SemiBold-76" d="M 1171 0 
L 77 3142 
L 826 3142 
L 1325 1510 
Q 1389 1280 1456 1043 
Q 1523 806 1587 563 
L 1613 563 
Q 1683 806 1750 1043 
Q 1818 1280 1882 1510 
L 2381 3142 
L 3091 3142 
L 2022 0 
L 1171 0 
z
" transform="scale(0.015625)"/>
       <path id="SourceSansPro-SemiBold-65" d="M 1811 -77 
Q 1376 -77 1024 118 
Q 672 314 467 682 
Q 262 1050 262 1568 
Q 262 2080 470 2451 
Q 678 2822 1011 3020 
Q 1344 3219 1709 3219 
Q 2138 3219 2426 3030 
Q 2714 2842 2861 2506 
Q 3008 2170 3008 1728 
Q 3008 1498 2976 1370 
L 979 1370 
Q 1030 954 1280 723 
Q 1530 493 1907 493 
Q 2112 493 2288 553 
Q 2464 614 2637 723 
L 2886 262 
Q 2662 115 2387 19 
Q 2112 -77 1811 -77 
z
M 973 1869 
L 2368 1869 
Q 2368 2234 2208 2442 
Q 2048 2650 1728 2650 
Q 1453 2650 1238 2448 
Q 1024 2246 973 1869 
z
" transform="scale(0.015625)"/>
       <path id="SourceSansPro-SemiBold-6c" d="M 1184 -77 
Q 794 -77 630 160 
Q 467 397 467 806 
L 467 4518 
L 1203 4518 
L 1203 768 
Q 1203 634 1254 579 
Q 1306 525 1363 525 
Q 1389 525 1411 528 
Q 1434 531 1478 538 
L 1574 -13 
Q 1510 -38 1411 -57 
Q 1312 -77 1184 -77 
z
" transform="scale(0.015625)"/>
       <path id="SourceSansPro-SemiBold-6e" d="M 467 0 
L 467 3142 
L 1075 3142 
L 1126 2720 
L 1152 2720 
Q 1363 2925 1612 3072 
Q 1862 3219 2182 3219 
Q 2688 3219 2918 2892 
Q 3149 2566 3149 1971 
L 3149 0 
L 2413 0 
L 2413 1875 
Q 2413 2266 2297 2426 
Q 2182 2586 1920 2586 
Q 1715 2586 1558 2486 
Q 1402 2387 1203 2195 
L 1203 0 
L 467 0 
z
" transform="scale(0.015625)"/>
       <path id="SourceSansPro-SemiBold-67" d="M 1562 -1389 
Q 1190 -1389 892 -1299 
Q 595 -1210 425 -1027 
Q 256 -845 256 -570 
Q 256 -179 704 102 
L 704 128 
Q 582 205 502 333 
Q 422 461 422 653 
Q 422 838 528 988 
Q 634 1139 768 1235 
L 768 1261 
Q 608 1382 483 1600 
Q 358 1818 358 2093 
Q 358 2458 531 2707 
Q 704 2957 989 3088 
Q 1274 3219 1600 3219 
Q 1728 3219 1846 3196 
Q 1965 3174 2061 3142 
L 3187 3142 
L 3187 2598 
L 2611 2598 
Q 2688 2509 2739 2371 
Q 2790 2234 2790 2067 
Q 2790 1722 2630 1482 
Q 2470 1242 2201 1120 
Q 1933 998 1600 998 
Q 1498 998 1389 1017 
Q 1280 1037 1171 1082 
Q 1101 1018 1059 954 
Q 1018 890 1018 781 
Q 1018 646 1130 569 
Q 1242 493 1530 493 
L 2086 493 
Q 2656 493 2947 310 
Q 3238 128 3238 -282 
Q 3238 -589 3033 -841 
Q 2829 -1094 2451 -1241 
Q 2074 -1389 1562 -1389 
z
M 1600 1459 
Q 1824 1459 1984 1625 
Q 2144 1792 2144 2093 
Q 2144 2387 1987 2550 
Q 1830 2714 1600 2714 
Q 1370 2714 1210 2554 
Q 1050 2394 1050 2093 
Q 1050 1792 1210 1625 
Q 1370 1459 1600 1459 
z
M 1677 -909 
Q 2054 -909 2291 -755 
Q 2528 -602 2528 -403 
Q 2528 -218 2384 -154 
Q 2240 -90 1971 -90 
L 1542 -90 
Q 1286 -90 1114 -45 
Q 870 -230 870 -461 
Q 870 -672 1088 -790 
Q 1306 -909 1677 -909 
z
" transform="scale(0.015625)"/>
       <path id="SourceSansPro-SemiBold-74" d="M 1574 -77 
Q 1030 -77 803 240 
Q 576 557 576 1062 
L 576 2560 
L 128 2560 
L 128 3110 
L 614 3142 
L 704 4000 
L 1318 4000 
L 1318 3142 
L 2118 3142 
L 2118 2560 
L 1318 2560 
L 1318 1062 
Q 1318 512 1760 512 
Q 1843 512 1932 534 
Q 2022 557 2086 582 
L 2214 38 
Q 2086 -6 1923 -41 
Q 1760 -77 1574 -77 
z
" transform="scale(0.015625)"/>
       <path id="SourceSansPro-SemiBold-68" d="M 467 0 
L 467 4518 
L 1203 4518 
L 1203 3354 
L 1178 2746 
Q 1376 2931 1619 3075 
Q 1862 3219 2182 3219 
Q 2688 3219 2918 2892 
Q 3149 2566 3149 1971 
L 3149 0 
L 2413 0 
L 2413 1875 
Q 2413 2266 2297 2426 
Q 2182 2586 1920 2586 
Q 1715 2586 1558 2486 
Q 1402 2387 1203 2195 
L 1203 0 
L 467 0 
z
" transform="scale(0.015625)"/>
       <path id="SourceSansPro-SemiBold-20" transform="scale(0.015625)"/>
       <path id="STIXGeneral-Regular-5b" d="M 1914 -998 
L 563 -998 
L 563 4237 
L 1914 4237 
L 1914 4077 
L 1382 4077 
Q 1216 4077 1133 4006 
Q 1050 3936 1050 3770 
L 1050 -493 
Q 1050 -838 1382 -838 
L 1914 -838 
L 1914 -998 
z
" transform="scale(0.015625)"/>
       <path id="STIXGeneral-Italic-b5" d="M 3181 2739 
L 2682 589 
Q 2643 416 2643 371 
Q 2643 192 2810 192 
Q 2957 192 3168 358 
L 3149 301 
Q 2944 96 2797 16 
Q 2650 -64 2464 -64 
Q 2099 -64 2099 314 
Q 2099 390 2125 512 
Q 1632 -64 1139 -64 
Q 653 -64 480 422 
Q 467 288 467 115 
Q 467 -45 473 -153 
Q 480 -262 480 -429 
Q 480 -845 355 -1091 
Q 230 -1338 26 -1338 
Q -192 -1338 -192 -1050 
Q -192 -762 51 -294 
Q 218 128 269 346 
L 813 2739 
L 1376 2739 
L 947 922 
Q 928 858 928 730 
Q 928 525 1046 406 
Q 1165 288 1370 288 
Q 1805 288 2150 736 
L 2618 2739 
L 3181 2739 
z
" transform="scale(0.015625)"/>
       <path id="STIXGeneral-Italic-6d" d="M 4506 672 
L 4474 627 
Q 3981 -58 3552 -58 
Q 3296 -58 3296 237 
Q 3296 333 3379 659 
L 3750 2112 
Q 3795 2291 3795 2355 
Q 3795 2413 3756 2451 
Q 3718 2490 3667 2490 
Q 3366 2490 2829 1741 
Q 2592 1408 2457 1072 
Q 2323 736 2138 0 
L 1658 0 
L 1830 595 
Q 2266 2099 2266 2330 
Q 2266 2490 2125 2490 
Q 1965 2490 1702 2237 
Q 1440 1984 1171 1574 
Q 1011 1325 899 1043 
Q 787 762 557 0 
L 77 0 
L 352 922 
Q 704 2093 704 2381 
Q 704 2522 442 2522 
L 282 2522 
L 282 2624 
L 1318 2822 
L 1338 2810 
L 966 1472 
Q 1798 2822 2374 2822 
Q 2560 2822 2659 2720 
Q 2758 2618 2758 2438 
Q 2758 2195 2502 1466 
Q 2842 2003 3069 2275 
Q 3296 2547 3526 2694 
Q 3731 2822 3930 2822 
Q 4102 2822 4201 2710 
Q 4301 2598 4301 2419 
Q 4301 2336 4282 2240 
L 3846 634 
Q 3782 390 3782 346 
Q 3782 243 3859 243 
Q 4000 243 4275 582 
L 4410 749 
L 4506 672 
z
" transform="scale(0.015625)"/>
       <path id="STIXGeneral-Regular-5d" d="M 1568 -998 
L 218 -998 
L 218 -838 
L 781 -838 
Q 947 -838 1014 -768 
Q 1082 -698 1082 -544 
L 1082 3731 
Q 1082 4077 755 4077 
L 218 4077 
L 218 4237 
L 1568 4237 
L 1568 -998 
z
" transform="scale(0.015625)"/>
      </defs>
      <use xlink:href="#SourceSansPro-SemiBold-57" transform="translate(0 0.40625)"/>
      <use xlink:href="#SourceSansPro-SemiBold-61" transform="translate(79.999985 0.40625)"/>
      <use xlink:href="#SourceSansPro-SemiBold-76" transform="translate(131.599976 0.40625)"/>
      <use xlink:href="#SourceSansPro-SemiBold-65" transform="translate(181.09996 0.40625)"/>
      <use xlink:href="#SourceSansPro-SemiBold-6c" transform="translate(231.799957 0.40625)"/>
      <use xlink:href="#SourceSansPro-SemiBold-65" transform="translate(258.899948 0.40625)"/>
      <use xlink:href="#SourceSansPro-SemiBold-6e" transform="translate(309.599945 0.40625)"/>
      <use xlink:href="#SourceSansPro-SemiBold-67" transform="translate(365.59993 0.40625)"/>
      <use xlink:href="#SourceSansPro-SemiBold-74" transform="translate(417.599915 0.40625)"/>
      <use xlink:href="#SourceSansPro-SemiBold-68" transform="translate(453.699905 0.40625)"/>
      <use xlink:href="#SourceSansPro-SemiBold-20" transform="translate(509.499893 0.40625)"/>
      <use xlink:href="#STIXGeneral-Regular-5b" transform="translate(529.499878 0.40625)"/>
      <use xlink:href="#STIXGeneral-Italic-b5" transform="translate(562.799866 0.40625)"/>
      <use xlink:href="#STIXGeneral-Italic-6d" transform="translate(612.79985 0.40625)"/>
      <use xlink:href="#STIXGeneral-Regular-5d" transform="translate(684.999832 0.40625)"/>
     </g>
    </g>
   </g>
   <g id="matplotlib.axis_2">
    <g id="ytick_1">
     <g id="line2d_7">
      <path d="M 53.335 268.375091 
L 329.391463 268.375091 
" clip-path="url(#pc018fca5da)" style="fill: none; stroke: #939393; stroke-linecap: square"/>
     </g>
     <g id="line2d_8">
      <defs>
       <path id="mfa47edddf2" d="M 0 0 
L -3.5 0 
" style="stroke: #939393"/>
      </defs>
      <g>
       <use xlink:href="#mfa47edddf2" x="53.335" y="268.375091" style="fill: #939393; stroke: #939393"/>
      </g>
     </g>
     <g id="text_5">
      <!-- 0 -->
      <g style="fill: #343434" transform="translate(38.1275 274.022591) scale(0.16 -0.16)">
       <use xlink:href="#SourceSansPro-SemiBold-30"/>
      </g>
     </g>
    </g>
    <g id="ytick_2">
     <g id="line2d_9">
      <path d="M 53.335 214.933439 
L 329.391463 214.933439 
" clip-path="url(#pc018fca5da)" style="fill: none; stroke: #939393; stroke-linecap: square"/>
     </g>
     <g id="line2d_10">
      <g>
       <use xlink:href="#mfa47edddf2" x="53.335" y="214.933439" style="fill: #939393; stroke: #939393"/>
      </g>
     </g>
     <g id="text_6">
      <!-- 20 -->
      <g style="fill: #343434" transform="translate(29.92 220.580939) scale(0.16 -0.16)">
       <use xlink:href="#SourceSansPro-SemiBold-32"/>
       <use xlink:href="#SourceSansPro-SemiBold-30" x="51.299988"/>
      </g>
     </g>
    </g>
    <g id="ytick_3">
     <g id="line2d_11">
      <path d="M 53.335 161.491787 
L 329.391463 161.491787 
" clip-path="url(#pc018fca5da)" style="fill: none; stroke: #939393; stroke-linecap: square"/>
     </g>
     <g id="line2d_12">
      <g>
       <use xlink:href="#mfa47edddf2" x="53.335" y="161.491787" style="fill: #939393; stroke: #939393"/>
      </g>
     </g>
     <g id="text_7">
      <!-- 40 -->
      <g style="fill: #343434" transform="translate(29.92 167.139287) scale(0.16 -0.16)">
       <defs>
        <path id="SourceSansPro-SemiBold-34" d="M 845 1619 
L 1914 1619 
L 1914 2541 
Q 1914 2720 1926 2963 
Q 1939 3206 1946 3386 
L 1920 3386 
Q 1843 3226 1760 3072 
Q 1677 2918 1587 2752 
L 845 1619 
z
M 1914 0 
L 1914 1050 
L 115 1050 
L 115 1549 
L 1728 4070 
L 2605 4070 
L 2605 1619 
L 3117 1619 
L 3117 1050 
L 2605 1050 
L 2605 0 
L 1914 0 
z
" transform="scale(0.015625)"/>
       </defs>
       <use xlink:href="#SourceSansPro-SemiBold-34"/>
       <use xlink:href="#SourceSansPro-SemiBold-30" x="51.299988"/>
      </g>
     </g>
    </g>
    <g id="ytick_4">
     <g id="line2d_13">
      <path d="M 53.335 108.050136 
L 329.391463 108.050136 
" clip-path="url(#pc018fca5da)" style="fill: none; stroke: #939393; stroke-linecap: square"/>
     </g>
     <g id="line2d_14">
      <g>
       <use xlink:href="#mfa47edddf2" x="53.335" y="108.050136" style="fill: #939393; stroke: #939393"/>
      </g>
     </g>
     <g id="text_8">
      <!-- 60 -->
      <g style="fill: #343434" transform="translate(29.92 113.697636) scale(0.16 -0.16)">
       <defs>
        <path id="SourceSansPro-SemiBold-36" d="M 1715 1984 
Q 1542 1984 1350 1878 
Q 1158 1773 986 1517 
Q 1043 973 1248 729 
Q 1453 486 1747 486 
Q 2003 486 2179 688 
Q 2355 890 2355 1261 
Q 2355 1619 2185 1801 
Q 2016 1984 1715 1984 
z
M 1760 -77 
Q 1363 -77 1024 134 
Q 685 346 483 787 
Q 282 1229 282 1914 
Q 282 2707 509 3196 
Q 736 3686 1101 3916 
Q 1466 4147 1882 4147 
Q 2253 4147 2521 4012 
Q 2790 3878 2970 3686 
L 2573 3238 
Q 2464 3373 2288 3459 
Q 2112 3546 1926 3546 
Q 1670 3546 1459 3405 
Q 1248 3264 1117 2934 
Q 986 2605 966 2042 
Q 1146 2266 1389 2394 
Q 1632 2522 1850 2522 
Q 2381 2522 2710 2211 
Q 3040 1901 3040 1261 
Q 3040 858 2864 557 
Q 2688 256 2400 89 
Q 2112 -77 1760 -77 
z
" transform="scale(0.015625)"/>
       </defs>
       <use xlink:href="#SourceSansPro-SemiBold-36"/>
       <use xlink:href="#SourceSansPro-SemiBold-30" x="51.299988"/>
      </g>
     </g>
    </g>
    <g id="ytick_5">
     <g id="line2d_15">
      <path d="M 53.335 54.608484 
L 329.391463 54.608484 
" clip-path="url(#pc018fca5da)" style="fill: none; stroke: #939393; stroke-linecap: square"/>
     </g>
     <g id="line2d_16">
      <g>
       <use xlink:href="#mfa47edddf2" x="53.335" y="54.608484" style="fill: #939393; stroke: #939393"/>
      </g>
     </g>
     <g id="text_9">
      <!-- 80 -->
      <g style="fill: #343434" transform="translate(29.92 60.255984) scale(0.16 -0.16)">
       <defs>
        <path id="SourceSansPro-SemiBold-38" d="M 1645 -77 
Q 1248 -77 934 67 
Q 621 211 441 460 
Q 262 710 262 1043 
Q 262 1421 486 1677 
Q 710 1933 998 2086 
L 998 2112 
Q 762 2278 598 2512 
Q 435 2746 435 3066 
Q 435 3398 595 3638 
Q 755 3878 1033 4012 
Q 1312 4147 1664 4147 
Q 2214 4147 2537 3843 
Q 2861 3539 2861 3046 
Q 2861 2746 2688 2502 
Q 2515 2259 2317 2112 
L 2317 2086 
Q 2598 1926 2809 1683 
Q 3021 1440 3021 1030 
Q 3021 717 2848 467 
Q 2675 218 2368 70 
Q 2061 -77 1645 -77 
z
M 1914 2298 
Q 2080 2464 2166 2637 
Q 2253 2810 2253 3002 
Q 2253 3270 2093 3446 
Q 1933 3622 1651 3622 
Q 1414 3622 1254 3475 
Q 1094 3328 1094 3066 
Q 1094 2861 1203 2723 
Q 1312 2586 1501 2486 
Q 1690 2387 1914 2298 
z
M 1658 448 
Q 1952 448 2141 611 
Q 2330 774 2330 1056 
Q 2330 1280 2198 1421 
Q 2067 1562 1846 1667 
Q 1626 1773 1350 1882 
Q 1158 1741 1033 1549 
Q 909 1357 909 1120 
Q 909 819 1126 633 
Q 1344 448 1658 448 
z
" transform="scale(0.015625)"/>
       </defs>
       <use xlink:href="#SourceSansPro-SemiBold-38"/>
       <use xlink:href="#SourceSansPro-SemiBold-30" x="51.299988"/>
      </g>
     </g>
    </g>
    <g id="text_10">
     <!-- Spectral Radiance $[W\cdot m^{-2}\cdot µm^{-1}]$ -->
     <g style="fill: #343434" transform="translate(22.14 274.056) rotate(-90) scale(0.18 -0.18)">
      <defs>
       <path id="SourceSansPro-SemiBold-53" d="M 1754 -77 
Q 1331 -77 937 83 
Q 544 243 243 538 
L 678 1043 
Q 902 832 1190 701 
Q 1478 570 1766 570 
Q 2125 570 2310 717 
Q 2496 864 2496 1107 
Q 2496 1370 2313 1485 
Q 2131 1600 1850 1722 
L 1274 1971 
Q 1069 2061 873 2201 
Q 678 2342 553 2560 
Q 429 2778 429 3085 
Q 429 3418 611 3683 
Q 794 3949 1110 4105 
Q 1427 4262 1837 4262 
Q 2202 4262 2541 4118 
Q 2880 3974 3123 3731 
L 2746 3258 
Q 2547 3424 2326 3520 
Q 2106 3616 1837 3616 
Q 1542 3616 1360 3485 
Q 1178 3354 1178 3123 
Q 1178 2963 1270 2857 
Q 1363 2752 1516 2678 
Q 1670 2605 1843 2534 
L 2413 2298 
Q 2784 2138 3021 1878 
Q 3258 1619 3258 1165 
Q 3258 826 3078 544 
Q 2899 262 2563 92 
Q 2227 -77 1754 -77 
z
" transform="scale(0.015625)"/>
       <path id="SourceSansPro-SemiBold-70" d="M 467 -1242 
L 467 3142 
L 1075 3142 
L 1126 2810 
L 1152 2810 
Q 1350 2976 1596 3097 
Q 1843 3219 2099 3219 
Q 2688 3219 3011 2784 
Q 3334 2349 3334 1619 
Q 3334 1082 3142 701 
Q 2950 320 2646 121 
Q 2342 -77 1990 -77 
Q 1786 -77 1581 16 
Q 1376 109 1184 269 
L 1203 -256 
L 1203 -1242 
L 467 -1242 
z
M 1837 531 
Q 2150 531 2361 806 
Q 2573 1082 2573 1613 
Q 2573 2086 2413 2348 
Q 2253 2611 1894 2611 
Q 1562 2611 1203 2259 
L 1203 794 
Q 1376 653 1536 592 
Q 1696 531 1837 531 
z
" transform="scale(0.015625)"/>
       <path id="SourceSansPro-SemiBold-63" d="M 1779 -77 
Q 1350 -77 1008 118 
Q 666 314 464 682 
Q 262 1050 262 1568 
Q 262 2093 480 2461 
Q 698 2829 1059 3024 
Q 1421 3219 1837 3219 
Q 2138 3219 2362 3116 
Q 2586 3014 2758 2867 
L 2400 2387 
Q 2278 2496 2150 2557 
Q 2022 2618 1875 2618 
Q 1498 2618 1258 2330 
Q 1018 2042 1018 1568 
Q 1018 1101 1251 813 
Q 1485 525 1856 525 
Q 2042 525 2205 605 
Q 2368 685 2502 794 
L 2803 307 
Q 2586 115 2317 19 
Q 2048 -77 1779 -77 
z
" transform="scale(0.015625)"/>
       <path id="SourceSansPro-SemiBold-72" d="M 467 0 
L 467 3142 
L 1075 3142 
L 1126 2586 
L 1152 2586 
Q 1318 2893 1555 3056 
Q 1792 3219 2042 3219 
Q 2266 3219 2400 3155 
L 2272 2515 
Q 2189 2541 2118 2553 
Q 2048 2566 1946 2566 
Q 1760 2566 1555 2422 
Q 1350 2278 1203 1920 
L 1203 0 
L 467 0 
z
" transform="scale(0.015625)"/>
       <path id="SourceSansPro-SemiBold-52" d="M 531 0 
L 531 4186 
L 1946 4186 
Q 2381 4186 2729 4070 
Q 3078 3955 3280 3683 
Q 3482 3411 3482 2944 
Q 3482 2464 3254 2169 
Q 3027 1875 2650 1747 
L 3648 0 
L 2816 0 
L 1914 1638 
L 1274 1638 
L 1274 0 
L 531 0 
z
M 1274 2227 
L 1869 2227 
Q 2298 2227 2525 2409 
Q 2752 2592 2752 2944 
Q 2752 3302 2525 3446 
Q 2298 3590 1869 3590 
L 1274 3590 
L 1274 2227 
z
" transform="scale(0.015625)"/>
       <path id="SourceSansPro-SemiBold-64" d="M 1568 -77 
Q 979 -77 627 358 
Q 275 794 275 1568 
Q 275 2080 464 2451 
Q 653 2822 960 3020 
Q 1267 3219 1606 3219 
Q 1875 3219 2064 3126 
Q 2253 3034 2432 2874 
L 2406 3379 
L 2406 4518 
L 3142 4518 
L 3142 0 
L 2534 0 
L 2483 339 
L 2458 339 
Q 2285 166 2054 44 
Q 1824 -77 1568 -77 
z
M 1747 531 
Q 2099 531 2406 883 
L 2406 2349 
Q 2246 2496 2086 2553 
Q 1926 2611 1766 2611 
Q 1466 2611 1251 2339 
Q 1037 2067 1037 1574 
Q 1037 1069 1222 800 
Q 1408 531 1747 531 
z
" transform="scale(0.015625)"/>
       <path id="SourceSansPro-SemiBold-69" d="M 467 0 
L 467 3142 
L 1203 3142 
L 1203 0 
L 467 0 
z
M 840 3693 
Q 642 3693 520 3808 
Q 398 3923 398 4115 
Q 398 4301 520 4416 
Q 642 4531 840 4531 
Q 1038 4531 1160 4416 
Q 1282 4301 1282 4115 
Q 1282 3923 1160 3808 
Q 1038 3693 840 3693 
z
" transform="scale(0.015625)"/>
       <path id="STIXGeneral-Italic-57" d="M 5798 4179 
L 5798 4077 
Q 5613 4019 5526 3936 
Q 5440 3853 5306 3597 
L 3379 -115 
L 3251 -115 
L 2931 2784 
L 2899 2784 
L 1478 -115 
L 1357 -115 
L 966 3174 
Q 915 3622 883 3766 
Q 851 3910 781 3981 
Q 717 4045 454 4077 
L 454 4179 
L 1958 4179 
L 1958 4077 
Q 1696 4051 1597 3987 
Q 1498 3923 1498 3750 
Q 1498 3667 1504 3622 
L 1786 1037 
L 2886 3264 
L 2835 3680 
Q 2810 3923 2723 3993 
Q 2637 4064 2355 4077 
L 2355 4179 
L 3866 4179 
L 3866 4077 
Q 3616 4051 3523 3987 
Q 3430 3923 3430 3770 
Q 3430 3750 3436 3715 
Q 3443 3680 3443 3674 
L 3699 1037 
L 4902 3373 
Q 5050 3654 5050 3808 
Q 5050 4070 4621 4077 
L 4621 4179 
L 5798 4179 
z
" transform="scale(0.015625)"/>
       <path id="STIXGeneral-Regular-22c5" d="M 1187 1888 
Q 1299 1773 1299 1619 
Q 1299 1466 1187 1350 
Q 1075 1235 921 1235 
Q 768 1235 649 1353 
Q 531 1472 531 1619 
Q 531 1766 649 1884 
Q 768 2003 921 2003 
Q 1075 2003 1187 1888 
z
" transform="scale(0.015625)"/>
       <path id="STIXGeneral-Regular-2212" d="M 3974 1408 
L 410 1408 
L 410 1830 
L 3974 1830 
L 3974 1408 
z
" transform="scale(0.015625)"/>
       <path id="STIXGeneral-Regular-32" d="M 3034 877 
L 2688 0 
L 186 0 
L 186 77 
L 1325 1286 
Q 1773 1754 1965 2144 
Q 2157 2534 2157 2950 
Q 2157 3379 1920 3616 
Q 1683 3853 1267 3853 
Q 922 3853 720 3673 
Q 518 3494 326 3021 
L 192 3053 
Q 301 3648 630 3987 
Q 960 4326 1523 4326 
Q 2054 4326 2380 4006 
Q 2707 3686 2707 3200 
Q 2707 2477 1888 1613 
L 832 486 
L 2330 486 
Q 2541 486 2665 569 
Q 2790 653 2944 915 
L 3034 877 
z
" transform="scale(0.015625)"/>
       <path id="STIXGeneral-Regular-31" d="M 2522 0 
L 755 0 
L 755 96 
Q 1107 115 1235 227 
Q 1363 339 1363 608 
L 1363 3482 
Q 1363 3795 1171 3795 
Q 1082 3795 883 3718 
L 710 3654 
L 710 3744 
L 1856 4326 
L 1914 4307 
L 1914 486 
Q 1914 275 2042 185 
Q 2170 96 2522 96 
L 2522 0 
z
" transform="scale(0.015625)"/>
      </defs>
      <use xlink:href="#SourceSansPro-SemiBold-53" transform="translate(0 0.409375)"/>
      <use xlink:href="#SourceSansPro-SemiBold-70" transform="translate(54.499985 0.409375)"/>
      <use xlink:href="#SourceSansPro-SemiBold-65" transform="translate(110.899979 0.409375)"/>
      <use xlink:href="#SourceSansPro-SemiBold-63" transform="translate(161.599976 0.409375)"/>
      <use xlink:href="#SourceSansPro-SemiBold-74" transform="translate(207.799973 0.409375)"/>
      <use xlink:href="#SourceSansPro-SemiBold-72" transform="translate(243.899963 0.409375)"/>
      <use xlink:href="#SourceSansPro-SemiBold-61" transform="translate(281.199951 0.409375)"/>
      <use xlink:href="#SourceSansPro-SemiBold-6c" transform="translate(332.799942 0.409375)"/>
      <use xlink:href="#SourceSansPro-SemiBold-20" transform="translate(359.899933 0.409375)"/>
      <use xlink:href="#SourceSansPro-SemiBold-52" transform="translate(379.899918 0.409375)"/>
      <use xlink:href="#SourceSansPro-SemiBold-61" transform="translate(439.099915 0.409375)"/>
      <use xlink:href="#SourceSansPro-SemiBold-64" transform="translate(490.699905 0.409375)"/>
      <use xlink:href="#SourceSansPro-SemiBold-69" transform="translate(547.099899 0.409375)"/>
      <use xlink:href="#SourceSansPro-SemiBold-61" transform="translate(573.299896 0.409375)"/>
      <use xlink:href="#SourceSansPro-SemiBold-6e" transform="translate(624.899887 0.409375)"/>
      <use xlink:href="#SourceSansPro-SemiBold-63" transform="translate(680.899872 0.409375)"/>
      <use xlink:href="#SourceSansPro-SemiBold-65" transform="translate(727.099869 0.409375)"/>
      <use xlink:href="#SourceSansPro-SemiBold-20" transform="translate(777.799866 0.409375)"/>
      <use xlink:href="#STIXGeneral-Regular-5b" transform="translate(797.79985 0.409375)"/>
      <use xlink:href="#STIXGeneral-Italic-57" transform="translate(831.099838 0.409375)"/>
      <use xlink:href="#STIXGeneral-Regular-22c5" transform="translate(928.839822 0.409375)"/>
      <use xlink:href="#STIXGeneral-Italic-6d" transform="translate(971.87981 0.409375)"/>
      <use xlink:href="#STIXGeneral-Regular-2212" transform="translate(1050.252916 35.684375) scale(0.7)"/>
      <use xlink:href="#STIXGeneral-Regular-32" transform="translate(1098.202906 35.684375) scale(0.7)"/>
      <use xlink:href="#STIXGeneral-Regular-22c5" transform="translate(1152.052266 0.409375)"/>
      <use xlink:href="#STIXGeneral-Italic-b5" transform="translate(1195.092253 0.409375)"/>
      <use xlink:href="#STIXGeneral-Italic-6d" transform="translate(1245.092238 0.409375)"/>
      <use xlink:href="#STIXGeneral-Regular-2212" transform="translate(1323.465345 35.684375) scale(0.7)"/>
      <use xlink:href="#STIXGeneral-Regular-31" transform="translate(1371.415334 35.684375) scale(0.7)"/>
      <use xlink:href="#STIXGeneral-Regular-5d" transform="translate(1410.824698 0.409375)"/>
     </g>
    </g>
   </g>
   <g id="line2d_17">
    <path d="M 65.883021 268.375091 
L 87.116396 268.264426 
L 90.68039 267.998673 
L 93.416133 267.577098 
L 95.800495 266.989386 
L 98.034266 266.210646 
L 100.192742 265.222046 
L 102.351217 263.987099 
L 104.584988 262.446926 
L 106.919153 260.563034 
L 109.479206 258.202602 
L 112.365539 255.22875 
L 115.904435 251.246622 
L 121.777496 244.241426 
L 127.77605 237.208262 
L 131.616129 233.046012 
L 134.954236 229.746224 
L 138.041358 227.000354 
L 140.977888 224.681518 
L 143.814025 222.721443 
L 146.599964 221.063987 
L 149.360805 219.678692 
L 152.121645 218.540812 
L 154.907585 217.631603 
L 157.76882 216.932982 
L 160.70535 216.446256 
L 163.767374 216.166638 
L 166.979988 216.099542 
L 170.393391 216.254273 
L 174.05778 216.646782 
L 178.04845 217.301726 
L 182.490893 218.261444 
L 187.560801 219.591417 
L 193.584453 221.41109 
L 201.339906 224.000276 
L 215.620982 229.054481 
L 229.851861 233.993217 
L 240.242661 237.362084 
L 249.880505 240.254601 
L 259.317561 242.855419 
L 268.804813 245.239356 
L 278.492854 247.444031 
L 288.532275 249.49906 
L 298.998371 251.4128 
L 310.016636 253.199664 
L 316.843442 254.200617 
L 316.843442 254.200617 
" clip-path="url(#pc018fca5da)" style="fill: none; stroke: #c46d3a; stroke-width: 3; stroke-linecap: square"/>
   </g>
   <g id="line2d_18">
    <path d="M 65.883021 268.375091 
L 83.477106 268.264267 
L 86.438735 268.001182 
L 88.697605 267.581028 
L 90.630193 266.998385 
L 92.41219 266.229519 
L 94.118892 265.249443 
L 95.800495 264.025372 
L 97.507196 262.504249 
L 99.289194 260.608783 
L 101.171585 258.269474 
L 103.204568 255.373722 
L 105.438339 251.79291 
L 108.02349 247.211771 
L 111.261203 240.991175 
L 117.259757 228.861904 
L 121.978285 219.57365 
L 125.316392 213.480228 
L 128.227824 208.615024 
L 130.888271 204.590379 
L 133.398126 201.189006 
L 135.782488 198.324622 
L 138.091555 195.893566 
L 140.325326 193.859152 
L 142.5089 192.164701 
L 144.667376 190.76565 
L 146.825851 189.628948 
L 148.984326 188.74109 
L 151.1679 188.08121 
L 153.401672 187.637755 
L 155.710738 187.40733 
L 158.120199 187.393524 
L 160.655153 187.605689 
L 163.340698 188.057593 
L 166.227032 188.773074 
L 169.364351 189.784303 
L 172.827951 191.138827 
L 176.743325 192.914691 
L 181.311261 195.239151 
L 186.933337 198.361399 
L 194.964874 203.100534 
L 214.039773 214.427529 
L 222.196802 218.962857 
L 229.701269 222.883223 
L 236.954751 226.422438 
L 244.132937 229.677369 
L 251.336221 232.699136 
L 258.6399 235.521601 
L 266.119268 238.172918 
L 273.824524 240.667554 
L 281.805863 243.017181 
L 290.138583 245.237217 
L 298.872879 247.332513 
L 308.084047 249.311366 
L 316.843442 250.996702 
L 316.843442 250.996702 
" clip-path="url(#pc018fca5da)" style="fill: none; stroke: #ff5f00; stroke-width: 3; stroke-linecap: square"/>
   </g>
   <g id="line2d_19">
    <path d="M 65.883021 268.375091 
L 80.515477 268.265328 
L 83.025332 268.006702 
L 84.907723 267.5974 
L 86.514031 267.026201 
L 87.994845 266.263301 
L 89.400364 265.286623 
L 90.780785 264.053611 
L 92.186303 262.491456 
L 93.616921 260.562691 
L 95.122834 258.150395 
L 96.729141 255.143669 
L 98.460941 251.415354 
L 100.368431 246.764724 
L 102.526907 240.89736 
L 105.112058 233.192841 
L 108.600756 222.031437 
L 117.20956 194.219257 
L 120.246485 185.318499 
L 122.906931 178.193594 
L 125.316392 172.357443 
L 127.575262 167.453574 
L 129.708639 163.340619 
L 131.741621 159.891996 
L 133.699308 157.000285 
L 135.5817 154.607673 
L 137.413894 152.632348 
L 139.195891 151.032608 
L 140.95279 149.751834 
L 142.68459 148.763063 
L 144.391291 148.040048 
L 146.123092 147.546527 
L 147.87999 147.277312 
L 149.687086 147.226801 
L 151.569477 147.399898 
L 153.552263 147.810599 
L 155.660541 148.480572 
L 157.919411 149.437579 
L 160.379069 150.727986 
L 163.089713 152.409382 
L 166.101539 154.545998 
L 169.540041 157.265075 
L 173.606006 160.774078 
L 178.726111 165.502535 
L 186.632154 173.146347 
L 199.507712 185.574436 
L 206.535306 192.028002 
L 212.835043 197.514836 
L 218.808498 202.425468 
L 224.631362 206.926159 
L 230.37893 211.089384 
L 236.126499 214.979368 
L 241.924264 218.635144 
L 247.797325 222.075665 
L 253.795879 225.331183 
L 259.919926 228.401719 
L 266.219663 231.311646 
L 272.745286 234.079722 
L 279.496797 236.701087 
L 286.524391 239.190173 
L 293.878267 241.557228 
L 301.583522 243.802043 
L 309.690354 245.930628 
L 316.843442 247.630642 
L 316.843442 247.630642 
" clip-path="url(#pc018fca5da)" style="fill: none; stroke: #b6364f; stroke-width: 3; stroke-linecap: square"/>
   </g>
   <g id="line2d_20">
    <path d="M 65.883021 268.375091 
L 78.106016 268.264504 
L 80.28959 268.002838 
L 81.895897 267.593533 
L 83.276318 267.013629 
L 84.531245 266.242748 
L 85.735976 265.233972 
L 86.915608 263.947853 
L 88.120338 262.29063 
L 89.350167 260.206616 
L 90.630193 257.588875 
L 91.985515 254.29929 
L 93.441231 250.166987 
L 95.02244 244.991001 
L 96.779338 238.450987 
L 98.762124 230.182562 
L 101.121388 219.343418 
L 104.233608 203.910706 
L 113.469875 157.447162 
L 116.230716 145.050713 
L 118.665276 135.103667 
L 120.899047 126.882971 
L 122.982227 120.040521 
L 124.939914 114.350131 
L 126.797207 109.613742 
L 128.579204 105.666166 
L 130.260807 102.463252 
L 131.892213 99.824475 
L 133.448323 97.720761 
L 134.954236 96.052463 
L 136.409952 94.767379 
L 137.815471 93.817079 
L 139.195891 93.147116 
L 140.576312 92.723948 
L 141.956732 92.533427 
L 143.362251 92.563938 
L 144.817967 92.818814 
L 146.348979 93.314712 
L 147.980384 94.080254 
L 149.737283 95.15465 
L 151.644773 96.586066 
L 153.753051 98.453332 
L 156.087217 100.824919 
L 158.722565 103.82835 
L 161.759489 107.639299 
L 165.348582 112.514974 
L 169.866322 119.0489 
L 176.693128 129.361903 
L 188.891024 147.793608 
L 195.090366 156.725505 
L 200.637146 164.333219 
L 205.857645 171.120468 
L 210.902454 177.317911 
L 215.846869 183.042311 
L 220.741086 188.37036 
L 225.610206 193.344917 
L 230.504423 198.028548 
L 235.423739 202.43013 
L 240.418351 206.60087 
L 245.488259 210.544382 
L 250.633462 214.265898 
L 255.904158 217.804369 
L 261.300346 221.160044 
L 266.872225 224.362413 
L 272.619793 227.408015 
L 278.56815 230.30695 
L 284.742394 233.06705 
L 291.167623 235.694252 
L 297.868937 238.192958 
L 304.896531 240.574473 
L 312.275505 242.838794 
L 316.843442 244.130453 
L 316.843442 244.130453 
" clip-path="url(#pc018fca5da)" style="fill: none; stroke: #f30030; stroke-width: 3; stroke-linecap: square"/>
   </g>
   <g id="line2d_21">
    <path d="M 65.883021 268.375091 
L 76.073033 268.264981 
L 77.980523 268.005946 
L 79.386042 267.596427 
L 80.565674 267.026396 
L 81.644912 266.259911 
L 82.673952 265.256399 
L 83.702993 263.935537 
L 84.757132 262.203259 
L 85.83637 259.984032 
L 86.965805 257.133574 
L 88.170535 253.457848 
L 89.450561 248.804668 
L 90.830982 242.912795 
L 92.336895 235.472638 
L 94.018498 225.991194 
L 95.925988 213.906536 
L 98.209956 197.93232 
L 101.271979 174.809577 
L 109.303516 113.451875 
L 112.014159 94.870402 
L 114.373423 80.194365 
L 116.5068 68.273022 
L 118.489586 58.408032 
L 120.346879 50.251345 
L 122.103777 43.49945 
L 123.760282 37.978008 
L 125.341491 33.452203 
L 126.847404 29.795401 
L 128.278021 26.888958 
L 129.633343 24.623783 
L 130.913369 22.900995 
L 132.143198 21.609049 
L 133.32283 20.688247 
L 134.452265 20.084427 
L 135.556601 19.743644 
L 136.660937 19.636994 
L 137.765274 19.752005 
L 138.919807 20.095893 
L 140.149636 20.6984 
L 141.479859 21.605949 
L 142.935575 22.880798 
L 144.516784 24.570554 
L 146.273683 26.784077 
L 148.23137 29.620026 
L 150.440042 33.224778 
L 152.949898 37.759615 
L 155.886428 43.541919 
L 159.425324 51.02258 
L 164.068556 61.39232 
L 173.405217 82.942246 
L 180.834389 99.789527 
L 186.431366 111.936629 
L 191.451076 122.309439 
L 196.194703 131.608348 
L 200.762639 140.079334 
L 205.230181 147.899655 
L 209.622428 155.144182 
L 213.989576 161.920697 
L 218.331625 168.250334 
L 222.673675 174.189692 
L 227.040823 179.788085 
L 231.43307 185.058666 
L 235.875513 190.042843 
L 240.368154 194.749997 
L 244.93609 199.214065 
L 249.579323 203.441025 
L 254.322949 207.458274 
L 259.166969 211.269056 
L 264.136483 214.895295 
L 269.231489 218.338234 
L 274.477086 221.615368 
L 279.898373 224.74053 
L 285.520449 227.724407 
L 291.368412 230.575031 
L 297.442261 233.287503 
L 303.792195 235.878453 
L 310.443311 238.350343 
L 316.843442 240.51847 
L 316.843442 240.51847 
" clip-path="url(#pc018fca5da)" style="fill: none; stroke: #59a932; stroke-width: 3; stroke-linecap: square"/>
   </g>
   <g id="patch_3">
    <path d="M 53.335 280.812 
L 53.335 7.2 
" style="fill: none; stroke: #343434; stroke-width: 0.8; stroke-linejoin: miter; stroke-linecap: square"/>
   </g>
   <g id="patch_4">
    <path d="M 329.391463 280.812 
L 329.391463 7.2 
" style="fill: none; stroke: #343434; stroke-width: 0.8; stroke-linejoin: miter; stroke-linecap: square"/>
   </g>
   <g id="patch_5">
    <path d="M 53.335 280.812 
L 329.391463 280.812 
" style="fill: none; stroke: #343434; stroke-width: 0.8; stroke-linejoin: miter; stroke-linecap: square"/>
   </g>
   <g id="patch_6">
    <path d="M 53.335 7.2 
L 329.391463 7.2 
" style="fill: none; stroke: #343434; stroke-width: 0.8; stroke-linejoin: miter; stroke-linecap: square"/>
   </g>
   <g id="legend_1">
    <g id="patch_7">
     <path d="M 138.439744 72.2 
L 320.291463 72.2 
Q 322.891463 72.2 322.891463 69.6 
L 322.891463 16.3 
Q 322.891463 13.7 320.291463 13.7 
L 138.439744 13.7 
Q 135.839744 13.7 135.839744 16.3 
L 135.839744 69.6 
Q 135.839744 72.2 138.439744 72.2 
z
" style="fill: #ffffff; opacity: 0.8; stroke: #cccccc; stroke-linejoin: miter"/>
    </g>
    <g id="line2d_22">
     <path d="M 141.039744 23.527187 
L 154.039744 23.527187 
L 167.039744 23.527187 
" style="fill: none; stroke: #c46d3a; stroke-width: 3; stroke-linecap: square"/>
    </g>
    <g id="text_11">
     <!-- 0.0°C -->
     <g style="fill: #343434" transform="translate(177.439744 28.077187) scale(0.13 -0.13)">
      <defs>
       <path id="SourceSansPro-SemiBold-2e" d="M 883 -77 
Q 685 -77 544 64 
Q 403 205 403 422 
Q 403 640 544 781 
Q 685 922 883 922 
Q 1088 922 1222 781 
Q 1357 640 1357 422 
Q 1357 205 1222 64 
Q 1088 -77 883 -77 
z
" transform="scale(0.015625)"/>
       <path id="SourceSansPro-SemiBold-b0" d="M 1120 2643 
Q 883 2643 688 2752 
Q 493 2861 374 3059 
Q 256 3258 256 3514 
Q 256 3776 374 3971 
Q 493 4166 688 4275 
Q 883 4384 1120 4384 
Q 1357 4384 1552 4275 
Q 1747 4166 1865 3971 
Q 1984 3776 1984 3514 
Q 1984 3258 1865 3059 
Q 1747 2861 1552 2752 
Q 1357 2643 1120 2643 
z
M 1120 3021 
Q 1325 3021 1449 3158 
Q 1574 3296 1574 3514 
Q 1574 3738 1449 3875 
Q 1325 4013 1120 4013 
Q 922 4013 794 3875 
Q 666 3738 666 3514 
Q 666 3296 794 3158 
Q 922 3021 1120 3021 
z
" transform="scale(0.015625)"/>
       <path id="SourceSansPro-SemiBold-43" d="M 2202 -77 
Q 1677 -77 1248 172 
Q 819 422 566 905 
Q 314 1389 314 2080 
Q 314 2765 573 3254 
Q 832 3744 1267 4003 
Q 1702 4262 2227 4262 
Q 2624 4262 2931 4102 
Q 3238 3942 3437 3731 
L 3040 3251 
Q 2880 3418 2685 3517 
Q 2490 3616 2246 3616 
Q 1907 3616 1641 3433 
Q 1376 3251 1225 2912 
Q 1075 2573 1075 2099 
Q 1075 1382 1388 976 
Q 1702 570 2227 570 
Q 2509 570 2726 688 
Q 2944 806 3123 998 
L 3520 531 
Q 3264 237 2934 80 
Q 2605 -77 2202 -77 
z
" transform="scale(0.015625)"/>
      </defs>
      <use xlink:href="#SourceSansPro-SemiBold-30"/>
      <use xlink:href="#SourceSansPro-SemiBold-2e" x="51.299988"/>
      <use xlink:href="#SourceSansPro-SemiBold-30" x="78.799973"/>
      <use xlink:href="#SourceSansPro-SemiBold-b0" x="130.09996"/>
      <use xlink:href="#SourceSansPro-SemiBold-43" x="164.899948"/>
     </g>
    </g>
    <g id="line2d_23">
     <path d="M 141.039744 41.727187 
L 154.039744 41.727187 
L 167.039744 41.727187 
" style="fill: none; stroke: #ff5f00; stroke-width: 3; stroke-linecap: square"/>
    </g>
    <g id="text_12">
     <!-- 25.0°C -->
     <g style="fill: #343434" transform="translate(177.439744 46.277187) scale(0.13 -0.13)">
      <defs>
       <path id="SourceSansPro-SemiBold-35" d="M 1542 -77 
Q 1050 -77 714 92 
Q 378 262 154 486 
L 493 960 
Q 678 787 908 656 
Q 1139 525 1446 525 
Q 1786 525 2010 729 
Q 2234 934 2234 1306 
Q 2234 1670 2029 1868 
Q 1824 2067 1485 2067 
Q 1286 2067 1152 2012 
Q 1018 1958 832 1837 
L 480 2061 
L 602 4070 
L 2778 4070 
L 2778 3450 
L 1242 3450 
L 1158 2464 
Q 1286 2528 1411 2563 
Q 1536 2598 1696 2598 
Q 2048 2598 2336 2464 
Q 2624 2330 2800 2048 
Q 2976 1766 2976 1325 
Q 2976 883 2774 569 
Q 2573 256 2246 89 
Q 1920 -77 1542 -77 
z
" transform="scale(0.015625)"/>
      </defs>
      <use xlink:href="#SourceSansPro-SemiBold-32"/>
      <use xlink:href="#SourceSansPro-SemiBold-35" x="51.299988"/>
      <use xlink:href="#SourceSansPro-SemiBold-2e" x="102.599976"/>
      <use xlink:href="#SourceSansPro-SemiBold-30" x="130.09996"/>
      <use xlink:href="#SourceSansPro-SemiBold-b0" x="181.399948"/>
      <use xlink:href="#SourceSansPro-SemiBold-43" x="216.199936"/>
     </g>
    </g>
    <g id="line2d_24">
     <path d="M 141.039744 59.927188 
L 154.039744 59.927188 
L 167.039744 59.927188 
" style="fill: none; stroke: #b6364f; stroke-width: 3; stroke-linecap: square"/>
    </g>
    <g id="text_13">
     <!-- 50.0°C -->
     <g style="fill: #343434" transform="translate(177.439744 64.477188) scale(0.13 -0.13)">
      <use xlink:href="#SourceSansPro-SemiBold-35"/>
      <use xlink:href="#SourceSansPro-SemiBold-30" x="51.299988"/>
      <use xlink:href="#SourceSansPro-SemiBold-2e" x="102.599976"/>
      <use xlink:href="#SourceSansPro-SemiBold-30" x="130.09996"/>
      <use xlink:href="#SourceSansPro-SemiBold-b0" x="181.399948"/>
      <use xlink:href="#SourceSansPro-SemiBold-43" x="216.199936"/>
     </g>
    </g>
    <g id="line2d_25">
     <path d="M 239.031307 23.527187 
L 252.031307 23.527187 
L 265.031307 23.527187 
" style="fill: none; stroke: #f30030; stroke-width: 3; stroke-linecap: square"/>
    </g>
    <g id="text_14">
     <!-- 75.0°C -->
     <g style="fill: #343434" transform="translate(275.431307 28.077187) scale(0.13 -0.13)">
      <defs>
       <path id="SourceSansPro-SemiBold-37" d="M 1075 0 
Q 1114 723 1229 1296 
Q 1344 1869 1581 2387 
Q 1818 2906 2208 3450 
L 282 3450 
L 282 4070 
L 3014 4070 
L 3014 3622 
Q 2656 3181 2435 2777 
Q 2214 2374 2089 1961 
Q 1965 1549 1907 1072 
Q 1850 595 1824 0 
L 1075 0 
z
" transform="scale(0.015625)"/>
      </defs>
      <use xlink:href="#SourceSansPro-SemiBold-37"/>
      <use xlink:href="#SourceSansPro-SemiBold-35" x="51.299988"/>
      <use xlink:href="#SourceSansPro-SemiBold-2e" x="102.599976"/>
      <use xlink:href="#SourceSansPro-SemiBold-30" x="130.09996"/>
      <use xlink:href="#SourceSansPro-SemiBold-b0" x="181.399948"/>
      <use xlink:href="#SourceSansPro-SemiBold-43" x="216.199936"/>
     </g>
    </g>
    <g id="line2d_26">
     <path d="M 239.031307 41.727187 
L 252.031307 41.727187 
L 265.031307 41.727187 
" style="fill: none; stroke: #59a932; stroke-width: 3; stroke-linecap: square"/>
    </g>
    <g id="text_15">
     <!-- 100.0°C -->
     <g style="fill: #343434" transform="translate(275.431307 46.277187) scale(0.13 -0.13)">
      <use xlink:href="#SourceSansPro-SemiBold-31"/>
      <use xlink:href="#SourceSansPro-SemiBold-30" x="51.299988"/>
      <use xlink:href="#SourceSansPro-SemiBold-30" x="102.599976"/>
      <use xlink:href="#SourceSansPro-SemiBold-2e" x="153.899963"/>
      <use xlink:href="#SourceSansPro-SemiBold-30" x="181.399948"/>
      <use xlink:href="#SourceSansPro-SemiBold-b0" x="232.699936"/>
      <use xlink:href="#SourceSansPro-SemiBold-43" x="267.499924"/>
     </g>
    </g>
   </g>
  </g>
  <g id="axes_2">
   <g id="patch_8">
    <path d="M 403.069463 280.812 
L 679.125926 280.812 
L 679.125926 7.2 
L 403.069463 7.2 
L 403.069463 280.812 
z
" style="fill: none"/>
   </g>
   <g id="matplotlib.axis_3">
    <g id="xtick_4">
     <g id="line2d_27">
      <path d="M 412.44077 280.812 
L 412.44077 7.2 
" clip-path="url(#p0f3123903c)" style="fill: none; stroke: #939393; stroke-linecap: square"/>
     </g>
     <g id="line2d_28">
      <g>
       <use xlink:href="#m3de8729588" x="412.44077" y="280.812" style="fill: #939393; stroke: #939393"/>
      </g>
     </g>
     <g id="text_16">
      <!-- 0 -->
      <g style="fill: #343434" transform="translate(408.33702 299.107) scale(0.16 -0.16)">
       <use xlink:href="#SourceSansPro-SemiBold-30"/>
      </g>
     </g>
    </g>
    <g id="xtick_5">
     <g id="line2d_29">
      <path d="M 475.975053 280.812 
L 475.975053 7.2 
" clip-path="url(#p0f3123903c)" style="fill: none; stroke: #939393; stroke-linecap: square"/>
     </g>
     <g id="line2d_30">
      <g>
       <use xlink:href="#m3de8729588" x="475.975053" y="280.812" style="fill: #939393; stroke: #939393"/>
      </g>
     </g>
     <g id="text_17">
      <!-- 1000 -->
      <g style="fill: #343434" transform="translate(459.560053 299.107) scale(0.16 -0.16)">
       <use xlink:href="#SourceSansPro-SemiBold-31"/>
       <use xlink:href="#SourceSansPro-SemiBold-30" x="51.299988"/>
       <use xlink:href="#SourceSansPro-SemiBold-30" x="102.599976"/>
       <use xlink:href="#SourceSansPro-SemiBold-30" x="153.899963"/>
      </g>
     </g>
    </g>
    <g id="xtick_6">
     <g id="line2d_31">
      <path d="M 539.509337 280.812 
L 539.509337 7.2 
" clip-path="url(#p0f3123903c)" style="fill: none; stroke: #939393; stroke-linecap: square"/>
     </g>
     <g id="line2d_32">
      <g>
       <use xlink:href="#m3de8729588" x="539.509337" y="280.812" style="fill: #939393; stroke: #939393"/>
      </g>
     </g>
     <g id="text_18">
      <!-- 2000 -->
      <g style="fill: #343434" transform="translate(523.094337 299.107) scale(0.16 -0.16)">
       <use xlink:href="#SourceSansPro-SemiBold-32"/>
       <use xlink:href="#SourceSansPro-SemiBold-30" x="51.299988"/>
       <use xlink:href="#SourceSansPro-SemiBold-30" x="102.599976"/>
       <use xlink:href="#SourceSansPro-SemiBold-30" x="153.899963"/>
      </g>
     </g>
    </g>
    <g id="xtick_7">
     <g id="line2d_33">
      <path d="M 603.043621 280.812 
L 603.043621 7.2 
" clip-path="url(#p0f3123903c)" style="fill: none; stroke: #939393; stroke-linecap: square"/>
     </g>
     <g id="line2d_34">
      <g>
       <use xlink:href="#m3de8729588" x="603.043621" y="280.812" style="fill: #939393; stroke: #939393"/>
      </g>
     </g>
     <g id="text_19">
      <!-- 3000 -->
      <g style="fill: #343434" transform="translate(586.628621 299.107) scale(0.16 -0.16)">
       <defs>
        <path id="SourceSansPro-SemiBold-33" d="M 1536 -77 
Q 1043 -77 707 92 
Q 371 262 154 499 
L 506 973 
Q 691 787 928 656 
Q 1165 525 1472 525 
Q 1805 525 2013 688 
Q 2221 851 2221 1139 
Q 2221 1350 2115 1507 
Q 2010 1664 1750 1747 
Q 1491 1830 1024 1830 
L 1024 2368 
Q 1626 2368 1856 2553 
Q 2086 2739 2086 3021 
Q 2086 3277 1926 3421 
Q 1766 3565 1485 3565 
Q 1248 3565 1049 3459 
Q 851 3354 666 3181 
L 288 3635 
Q 550 3866 848 4006 
Q 1146 4147 1510 4147 
Q 2099 4147 2464 3868 
Q 2829 3590 2829 3072 
Q 2829 2733 2640 2499 
Q 2451 2266 2118 2138 
L 2118 2112 
Q 2477 2016 2720 1760 
Q 2963 1504 2963 1101 
Q 2963 730 2768 467 
Q 2573 205 2249 64 
Q 1926 -77 1536 -77 
z
" transform="scale(0.015625)"/>
       </defs>
       <use xlink:href="#SourceSansPro-SemiBold-33"/>
       <use xlink:href="#SourceSansPro-SemiBold-30" x="51.299988"/>
       <use xlink:href="#SourceSansPro-SemiBold-30" x="102.599976"/>
       <use xlink:href="#SourceSansPro-SemiBold-30" x="153.899963"/>
      </g>
     </g>
    </g>
    <g id="xtick_8">
     <g id="line2d_35">
      <path d="M 666.577905 280.812 
L 666.577905 7.2 
" clip-path="url(#p0f3123903c)" style="fill: none; stroke: #939393; stroke-linecap: square"/>
     </g>
     <g id="line2d_36">
      <g>
       <use xlink:href="#m3de8729588" x="666.577905" y="280.812" style="fill: #939393; stroke: #939393"/>
      </g>
     </g>
     <g id="text_20">
      <!-- 4000 -->
      <g style="fill: #343434" transform="translate(650.162905 299.107) scale(0.16 -0.16)">
       <use xlink:href="#SourceSansPro-SemiBold-34"/>
       <use xlink:href="#SourceSansPro-SemiBold-30" x="51.299988"/>
       <use xlink:href="#SourceSansPro-SemiBold-30" x="102.599976"/>
       <use xlink:href="#SourceSansPro-SemiBold-30" x="153.899963"/>
      </g>
     </g>
    </g>
    <g id="text_21">
     <!-- Wavenumber $[cm^{-1}]$ -->
     <g style="fill: #343434" transform="translate(462.887694 320.538875) scale(0.18 -0.18)">
      <defs>
       <path id="SourceSansPro-SemiBold-75" d="M 1402 -77 
Q 896 -77 665 249 
Q 435 576 435 1171 
L 435 3142 
L 1171 3142 
L 1171 1267 
Q 1171 877 1286 717 
Q 1402 557 1658 557 
Q 1862 557 2019 659 
Q 2176 762 2355 992 
L 2355 3142 
L 3091 3142 
L 3091 0 
L 2490 0 
L 2432 461 
L 2413 461 
Q 2208 218 1965 70 
Q 1722 -77 1402 -77 
z
" transform="scale(0.015625)"/>
       <path id="SourceSansPro-SemiBold-6d" d="M 467 0 
L 467 3142 
L 1075 3142 
L 1126 2714 
L 1152 2714 
Q 1350 2925 1584 3072 
Q 1818 3219 2112 3219 
Q 2458 3219 2666 3068 
Q 2874 2918 2982 2656 
Q 3206 2899 3452 3059 
Q 3699 3219 3994 3219 
Q 4493 3219 4729 2892 
Q 4966 2566 4966 1971 
L 4966 0 
L 4224 0 
L 4224 1875 
Q 4224 2266 4105 2426 
Q 3987 2586 3744 2586 
Q 3450 2586 3085 2195 
L 3085 0 
L 2349 0 
L 2349 1875 
Q 2349 2266 2230 2426 
Q 2112 2586 1862 2586 
Q 1568 2586 1203 2195 
L 1203 0 
L 467 0 
z
" transform="scale(0.015625)"/>
       <path id="SourceSansPro-SemiBold-62" d="M 1990 -77 
Q 1542 -77 1133 333 
L 1114 333 
L 1050 0 
L 467 0 
L 467 4518 
L 1203 4518 
L 1203 3354 
L 1184 2829 
Q 1382 3002 1619 3110 
Q 1856 3219 2093 3219 
Q 2682 3219 3008 2784 
Q 3334 2349 3334 1626 
Q 3334 1088 3142 707 
Q 2950 326 2646 124 
Q 2342 -77 1990 -77 
z
M 1837 531 
Q 2150 531 2361 806 
Q 2573 1082 2573 1613 
Q 2573 2086 2413 2348 
Q 2253 2611 1894 2611 
Q 1562 2611 1203 2259 
L 1203 794 
Q 1370 653 1533 592 
Q 1696 531 1837 531 
z
" transform="scale(0.015625)"/>
       <path id="STIXGeneral-Italic-63" d="M 2240 685 
L 2342 621 
Q 2048 250 1769 90 
Q 1491 -70 1133 -70 
Q 678 -70 435 179 
Q 192 429 192 915 
Q 192 1344 409 1744 
Q 627 2144 979 2432 
Q 1472 2822 2048 2822 
Q 2342 2822 2531 2675 
Q 2720 2528 2720 2304 
Q 2720 2176 2630 2086 
Q 2541 1997 2413 1997 
Q 2285 1997 2224 2070 
Q 2163 2144 2163 2253 
Q 2163 2310 2211 2403 
Q 2259 2496 2259 2560 
Q 2259 2688 2022 2688 
Q 1619 2688 1325 2381 
Q 742 1766 742 890 
Q 742 544 889 352 
Q 1037 160 1312 160 
Q 1562 160 1766 281 
Q 1971 403 2240 685 
z
" transform="scale(0.015625)"/>
      </defs>
      <use xlink:href="#SourceSansPro-SemiBold-57" transform="translate(0 0.409375)"/>
      <use xlink:href="#SourceSansPro-SemiBold-61" transform="translate(79.999985 0.409375)"/>
      <use xlink:href="#SourceSansPro-SemiBold-76" transform="translate(131.599976 0.409375)"/>
      <use xlink:href="#SourceSansPro-SemiBold-65" transform="translate(181.09996 0.409375)"/>
      <use xlink:href="#SourceSansPro-SemiBold-6e" transform="translate(231.799957 0.409375)"/>
      <use xlink:href="#SourceSansPro-SemiBold-75" transform="translate(287.799942 0.409375)"/>
      <use xlink:href="#SourceSansPro-SemiBold-6d" transform="translate(343.399933 0.409375)"/>
      <use xlink:href="#SourceSansPro-SemiBold-62" transform="translate(427.699921 0.409375)"/>
      <use xlink:href="#SourceSansPro-SemiBold-65" transform="translate(483.999908 0.409375)"/>
      <use xlink:href="#SourceSansPro-SemiBold-72" transform="translate(534.699905 0.409375)"/>
      <use xlink:href="#SourceSansPro-SemiBold-20" transform="translate(571.999893 0.409375)"/>
      <use xlink:href="#STIXGeneral-Regular-5b" transform="translate(591.999878 0.409375)"/>
      <use xlink:href="#STIXGeneral-Italic-63" transform="translate(625.299866 0.409375)"/>
      <use xlink:href="#STIXGeneral-Italic-6d" transform="translate(669.69986 0.409375)"/>
      <use xlink:href="#STIXGeneral-Regular-2212" transform="translate(748.072966 35.684375) scale(0.7)"/>
      <use xlink:href="#STIXGeneral-Regular-31" transform="translate(796.022956 35.684375) scale(0.7)"/>
      <use xlink:href="#STIXGeneral-Regular-5d" transform="translate(835.43232 0.409375)"/>
     </g>
    </g>
   </g>
   <g id="matplotlib.axis_4">
    <g id="ytick_6">
     <g id="line2d_37">
      <path d="M 403.069463 268.375545 
L 679.125926 268.375545 
" clip-path="url(#p0f3123903c)" style="fill: none; stroke: #939393; stroke-linecap: square"/>
     </g>
     <g id="line2d_38">
      <g>
       <use xlink:href="#mfa47edddf2" x="403.069463" y="268.375545" style="fill: #939393; stroke: #939393"/>
      </g>
     </g>
     <g id="text_22">
      <!-- 0.0 -->
      <g style="fill: #343434" transform="translate(375.254463 274.023045) scale(0.16 -0.16)">
       <use xlink:href="#SourceSansPro-SemiBold-30"/>
       <use xlink:href="#SourceSansPro-SemiBold-2e" x="51.299988"/>
       <use xlink:href="#SourceSansPro-SemiBold-30" x="78.799973"/>
      </g>
     </g>
    </g>
    <g id="ytick_7">
     <g id="line2d_39">
      <path d="M 403.069463 214.759004 
L 679.125926 214.759004 
" clip-path="url(#p0f3123903c)" style="fill: none; stroke: #939393; stroke-linecap: square"/>
     </g>
     <g id="line2d_40">
      <g>
       <use xlink:href="#mfa47edddf2" x="403.069463" y="214.759004" style="fill: #939393; stroke: #939393"/>
      </g>
     </g>
     <g id="text_23">
      <!-- 0.2 -->
      <g style="fill: #343434" transform="translate(375.254463 220.406504) scale(0.16 -0.16)">
       <use xlink:href="#SourceSansPro-SemiBold-30"/>
       <use xlink:href="#SourceSansPro-SemiBold-2e" x="51.299988"/>
       <use xlink:href="#SourceSansPro-SemiBold-32" x="78.799973"/>
      </g>
     </g>
    </g>
    <g id="ytick_8">
     <g id="line2d_41">
      <path d="M 403.069463 161.142462 
L 679.125926 161.142462 
" clip-path="url(#p0f3123903c)" style="fill: none; stroke: #939393; stroke-linecap: square"/>
     </g>
     <g id="line2d_42">
      <g>
       <use xlink:href="#mfa47edddf2" x="403.069463" y="161.142462" style="fill: #939393; stroke: #939393"/>
      </g>
     </g>
     <g id="text_24">
      <!-- 0.4 -->
      <g style="fill: #343434" transform="translate(375.254463 166.789962) scale(0.16 -0.16)">
       <use xlink:href="#SourceSansPro-SemiBold-30"/>
       <use xlink:href="#SourceSansPro-SemiBold-2e" x="51.299988"/>
       <use xlink:href="#SourceSansPro-SemiBold-34" x="78.799973"/>
      </g>
     </g>
    </g>
    <g id="ytick_9">
     <g id="line2d_43">
      <path d="M 403.069463 107.525921 
L 679.125926 107.525921 
" clip-path="url(#p0f3123903c)" style="fill: none; stroke: #939393; stroke-linecap: square"/>
     </g>
     <g id="line2d_44">
      <g>
       <use xlink:href="#mfa47edddf2" x="403.069463" y="107.525921" style="fill: #939393; stroke: #939393"/>
      </g>
     </g>
     <g id="text_25">
      <!-- 0.6 -->
      <g style="fill: #343434" transform="translate(375.254463 113.173421) scale(0.16 -0.16)">
       <use xlink:href="#SourceSansPro-SemiBold-30"/>
       <use xlink:href="#SourceSansPro-SemiBold-2e" x="51.299988"/>
       <use xlink:href="#SourceSansPro-SemiBold-36" x="78.799973"/>
      </g>
     </g>
    </g>
    <g id="ytick_10">
     <g id="line2d_45">
      <path d="M 403.069463 53.909379 
L 679.125926 53.909379 
" clip-path="url(#p0f3123903c)" style="fill: none; stroke: #939393; stroke-linecap: square"/>
     </g>
     <g id="line2d_46">
      <g>
       <use xlink:href="#mfa47edddf2" x="403.069463" y="53.909379" style="fill: #939393; stroke: #939393"/>
      </g>
     </g>
     <g id="text_26">
      <!-- 0.8 -->
      <g style="fill: #343434" transform="translate(375.254463 59.556879) scale(0.16 -0.16)">
       <use xlink:href="#SourceSansPro-SemiBold-30"/>
       <use xlink:href="#SourceSansPro-SemiBold-2e" x="51.299988"/>
       <use xlink:href="#SourceSansPro-SemiBold-38" x="78.799973"/>
      </g>
     </g>
    </g>
    <g id="text_27">
     <!-- Spectral Radiance $[W\cdot m^{-2}\cdot(cm^{-1})^{-1}]$ -->
     <g style="fill: #343434" transform="translate(367.654463 287.556) rotate(-90) scale(0.18 -0.18)">
      <defs>
       <path id="STIXGeneral-Regular-28" d="M 1946 -1030 
L 1869 -1133 
Q 1126 -710 716 32 
Q 307 774 307 1613 
Q 307 3386 1888 4326 
L 1946 4224 
Q 1293 3667 1075 3126 
Q 858 2586 858 1632 
Q 858 685 1082 96 
Q 1306 -493 1946 -1030 
z
" transform="scale(0.015625)"/>
       <path id="STIXGeneral-Regular-29" d="M 186 4224 
L 262 4326 
Q 992 3891 1408 3148 
Q 1824 2406 1824 1581 
Q 1824 -166 243 -1133 
L 186 -1030 
Q 845 -486 1059 54 
Q 1274 595 1274 1562 
Q 1274 2534 1059 3120 
Q 845 3706 186 4224 
z
" transform="scale(0.015625)"/>
      </defs>
      <use xlink:href="#SourceSansPro-SemiBold-53" transform="translate(0 0.409375)"/>
      <use xlink:href="#SourceSansPro-SemiBold-70" transform="translate(54.499985 0.409375)"/>
      <use xlink:href="#SourceSansPro-SemiBold-65" transform="translate(110.899979 0.409375)"/>
      <use xlink:href="#SourceSansPro-SemiBold-63" transform="translate(161.599976 0.409375)"/>
      <use xlink:href="#SourceSansPro-SemiBold-74" transform="translate(207.799973 0.409375)"/>
      <use xlink:href="#SourceSansPro-SemiBold-72" transform="translate(243.899963 0.409375)"/>
      <use xlink:href="#SourceSansPro-SemiBold-61" transform="translate(281.199951 0.409375)"/>
      <use xlink:href="#SourceSansPro-SemiBold-6c" transform="translate(332.799942 0.409375)"/>
      <use xlink:href="#SourceSansPro-SemiBold-20" transform="translate(359.899933 0.409375)"/>
      <use xlink:href="#SourceSansPro-SemiBold-52" transform="translate(379.899918 0.409375)"/>
      <use xlink:href="#SourceSansPro-SemiBold-61" transform="translate(439.099915 0.409375)"/>
      <use xlink:href="#SourceSansPro-SemiBold-64" transform="translate(490.699905 0.409375)"/>
      <use xlink:href="#SourceSansPro-SemiBold-69" transform="translate(547.099899 0.409375)"/>
      <use xlink:href="#SourceSansPro-SemiBold-61" transform="translate(573.299896 0.409375)"/>
      <use xlink:href="#SourceSansPro-SemiBold-6e" transform="translate(624.899887 0.409375)"/>
      <use xlink:href="#SourceSansPro-SemiBold-63" transform="translate(680.899872 0.409375)"/>
      <use xlink:href="#SourceSansPro-SemiBold-65" transform="translate(727.099869 0.409375)"/>
      <use xlink:href="#SourceSansPro-SemiBold-20" transform="translate(777.799866 0.409375)"/>
      <use xlink:href="#STIXGeneral-Regular-5b" transform="translate(797.79985 0.409375)"/>
      <use xlink:href="#STIXGeneral-Italic-57" transform="translate(831.099838 0.409375)"/>
      <use xlink:href="#STIXGeneral-Regular-22c5" transform="translate(928.839822 0.409375)"/>
      <use xlink:href="#STIXGeneral-Italic-6d" transform="translate(971.87981 0.409375)"/>
      <use xlink:href="#STIXGeneral-Regular-2212" transform="translate(1050.252916 35.684375) scale(0.7)"/>
      <use xlink:href="#STIXGeneral-Regular-32" transform="translate(1098.202906 35.684375) scale(0.7)"/>
      <use xlink:href="#STIXGeneral-Regular-22c5" transform="translate(1152.052266 0.409375)"/>
      <use xlink:href="#STIXGeneral-Regular-28" transform="translate(1195.092253 0.409375)"/>
      <use xlink:href="#STIXGeneral-Italic-63" transform="translate(1228.392241 0.409375)"/>
      <use xlink:href="#STIXGeneral-Italic-6d" transform="translate(1272.792235 0.409375)"/>
      <use xlink:href="#STIXGeneral-Regular-2212" transform="translate(1351.165342 35.684375) scale(0.7)"/>
      <use xlink:href="#STIXGeneral-Regular-31" transform="translate(1399.115331 35.684375) scale(0.7)"/>
      <use xlink:href="#STIXGeneral-Regular-29" transform="translate(1438.524695 0.409375)"/>
      <use xlink:href="#STIXGeneral-Regular-2212" transform="translate(1473.367964 35.684375) scale(0.7)"/>
      <use xlink:href="#STIXGeneral-Regular-31" transform="translate(1521.317954 35.684375) scale(0.7)"/>
      <use xlink:href="#STIXGeneral-Regular-5d" transform="translate(1560.727318 0.409375)"/>
     </g>
    </g>
   </g>
   <g id="line2d_47">
    <path d="M 415.617484 264.214045 
L 416.621426 261.476459 
L 417.851255 257.431657 
L 419.357168 251.662717 
L 421.339954 243.116175 
L 424.87885 226.664542 
L 428.467942 210.375678 
L 430.802108 200.792032 
L 432.784893 193.548936 
L 434.566891 187.847279 
L 436.198296 183.34445 
L 437.70421 179.814231 
L 439.109728 177.064838 
L 440.414853 174.978729 
L 441.644682 173.415894 
L 442.799216 172.294423 
L 443.903552 171.524236 
L 444.957691 171.054288 
L 445.986732 170.834703 
L 447.015772 170.840314 
L 448.069911 171.067448 
L 449.199346 171.544856 
L 450.404077 172.302969 
L 451.7343 173.414814 
L 453.190016 174.93088 
L 454.821422 176.959247 
L 456.703813 179.671044 
L 458.887387 183.225108 
L 461.547834 188.004022 
L 465.111828 194.900548 
L 477.184232 218.622242 
L 480.773325 224.987849 
L 484.036136 230.330193 
L 487.123258 234.964497 
L 490.084887 239.017256 
L 492.996319 242.629254 
L 495.857554 245.830399 
L 498.718789 248.702025 
L 501.605123 251.284871 
L 504.516555 253.593421 
L 507.503282 255.677298 
L 510.565306 257.542205 
L 513.752822 259.221452 
L 517.090929 260.725959 
L 520.604727 262.064064 
L 524.369509 263.257067 
L 528.435475 264.309034 
L 532.903017 265.230728 
L 537.87253 266.024133 
L 543.519704 266.695307 
L 550.120624 267.249098 
L 558.101963 267.687278 
L 568.317074 268.013915 
L 582.59815 268.231573 
L 606.642563 268.346387 
L 666.577905 268.375091 
L 666.577905 268.375091 
" clip-path="url(#p0f3123903c)" style="fill: none; stroke: #c46d3a; stroke-width: 3; stroke-linecap: square"/>
   </g>
   <g id="line2d_48">
    <path d="M 415.617484 263.7806 
L 416.621426 260.728658 
L 417.801058 256.387626 
L 419.231675 250.227944 
L 421.038771 241.393953 
L 423.573725 227.776903 
L 430.425629 190.446226 
L 432.784893 179.100253 
L 434.817876 170.372596 
L 436.65007 163.445522 
L 438.331673 157.919669 
L 439.887784 153.535028 
L 441.3435 150.071421 
L 442.698821 147.396732 
L 443.978848 145.348855 
L 445.158479 143.862602 
L 446.262816 142.809321 
L 447.316955 142.09864 
L 448.320897 141.67963 
L 449.299741 141.503743 
L 450.303683 141.551783 
L 451.332723 141.829847 
L 452.411961 142.357294 
L 453.566494 143.172953 
L 454.846521 144.360115 
L 456.252039 145.97837 
L 457.833248 148.154057 
L 459.615245 151.002864 
L 461.648228 154.690004 
L 464.032591 159.494552 
L 466.969121 165.939083 
L 471.085284 175.561684 
L 481.400788 199.876459 
L 485.291064 208.359481 
L 488.754664 215.392825 
L 491.992377 221.474629 
L 495.079499 226.809743 
L 498.066227 231.536644 
L 501.002758 235.773546 
L 503.889091 239.554012 
L 506.775424 242.970992 
L 509.661758 246.044863 
L 512.548091 248.798074 
L 515.484622 251.294421 
L 518.47135 253.543977 
L 521.533373 255.574489 
L 524.720889 257.42085 
L 528.033898 259.081936 
L 531.522597 260.580301 
L 535.212084 261.920957 
L 539.152556 263.114925 
L 543.41931 264.173763 
L 548.112739 265.10607 
L 553.333238 265.912566 
L 559.281595 266.600867 
L 566.208795 267.171421 
L 574.541515 267.62641 
L 585.108005 267.969772 
L 599.640067 268.204068 
L 623.15741 268.334559 
L 666.577905 268.372888 
L 666.577905 268.372888 
" clip-path="url(#p0f3123903c)" style="fill: none; stroke: #ff5f00; stroke-width: 3; stroke-linecap: square"/>
   </g>
   <g id="line2d_49">
    <path d="M 415.617484 263.3468 
L 416.596327 260.072649 
L 417.750861 255.384719 
L 419.131281 248.792622 
L 420.812884 239.614845 
L 422.996458 226.377558 
L 426.685945 202.394617 
L 430.977798 174.916649 
L 433.588047 159.630854 
L 435.79672 147.959369 
L 437.779505 138.628645 
L 439.586601 131.14645 
L 441.268204 125.094132 
L 442.824314 120.287362 
L 444.28003 116.48121 
L 445.635352 113.53065 
L 446.915378 111.258956 
L 448.09501 109.597303 
L 449.199346 108.406292 
L 450.253486 107.587866 
L 451.257428 107.087737 
L 452.211173 106.855947 
L 453.164918 106.852238 
L 454.143761 107.075926 
L 455.172802 107.548391 
L 456.277138 108.312304 
L 457.481868 109.431319 
L 458.786993 110.957224 
L 460.242709 113.013343 
L 461.874115 115.719137 
L 463.706309 119.205263 
L 465.814588 123.718015 
L 468.274246 129.536205 
L 471.260973 137.204118 
L 475.30184 148.242624 
L 487.800919 182.786711 
L 491.741392 192.803695 
L 495.280288 201.206497 
L 498.593297 208.512442 
L 501.755714 214.959153 
L 504.817737 220.705943 
L 507.804465 225.847694 
L 510.740996 230.468946 
L 513.652428 234.642676 
L 516.56386 238.43027 
L 519.475292 241.854136 
L 522.386724 244.938083 
L 525.323254 247.729142 
L 528.309982 250.264673 
L 531.372005 252.573728 
L 534.509324 254.662703 
L 537.772136 256.567543 
L 541.160441 258.287742 
L 544.724435 259.846495 
L 548.489218 261.249079 
L 552.504986 262.506741 
L 556.847036 263.631246 
L 561.590662 264.626608 
L 566.836259 265.496209 
L 572.734419 266.24433 
L 579.536126 266.876678 
L 587.567663 267.392685 
L 597.456493 267.795987 
L 610.407345 268.089065 
L 629.331654 268.275524 
L 664.494725 268.362189 
L 666.577905 268.363715 
L 666.577905 268.363715 
" clip-path="url(#p0f3123903c)" style="fill: none; stroke: #b6364f; stroke-width: 3; stroke-linecap: square"/>
   </g>
   <g id="line2d_50">
    <path d="M 415.617484 262.912721 
L 416.571229 259.43316 
L 417.700664 254.423199 
L 419.030887 247.459144 
L 420.637194 237.794674 
L 422.645078 224.259556 
L 425.431018 203.808137 
L 433.236667 145.714538 
L 435.79672 128.733143 
L 438.030491 115.349356 
L 440.063473 104.484125 
L 441.920766 95.729211 
L 443.652566 88.608191 
L 445.258874 82.914011 
L 446.764787 78.370701 
L 448.170306 74.816455 
L 449.47543 72.098304 
L 450.680161 70.075189 
L 451.809596 68.590815 
L 452.863735 67.554866 
L 453.867677 66.872209 
L 454.821422 66.489457 
L 455.750068 66.357185 
L 456.678715 66.453688 
L 457.63246 66.781877 
L 458.636402 67.367681 
L 459.71564 68.259537 
L 460.895272 69.528468 
L 462.200396 71.268141 
L 463.656112 73.594167 
L 465.287518 76.641808 
L 467.094614 80.504235 
L 469.152695 85.445658 
L 471.537058 91.776101 
L 474.348095 99.898374 
L 477.91209 110.919061 
L 483.559264 129.214739 
L 491.239421 153.960534 
L 495.656766 167.42387 
L 499.496844 178.429476 
L 503.03574 187.908923 
L 506.373848 196.227182 
L 509.586462 203.645479 
L 512.698683 210.281637 
L 515.735607 216.243396 
L 518.722335 221.62585 
L 521.683964 226.510719 
L 524.620495 230.930604 
L 527.557025 234.95183 
L 530.493556 238.598808 
L 533.455185 241.923369 
L 536.441913 244.942659 
L 539.478838 247.696247 
L 542.56596 250.195717 
L 545.728377 252.470945 
L 548.991189 254.544752 
L 552.379493 256.434192 
L 555.918389 258.151752 
L 559.632975 259.706478 
L 563.573447 261.113285 
L 567.790004 262.380328 
L 572.332842 263.511214 
L 577.302355 264.516203 
L 582.798938 265.397249 
L 588.973182 266.157687 
L 596.076072 266.80273 
L 604.458989 267.333165 
L 614.724296 267.750524 
L 628.051627 268.057462 
L 647.176724 268.25724 
L 666.577905 268.333044 
L 666.577905 268.333044 
" clip-path="url(#p0f3123903c)" style="fill: none; stroke: #f30030; stroke-width: 3; stroke-linecap: square"/>
   </g>
   <g id="line2d_51">
    <path d="M 415.617484 262.47842 
L 416.571229 258.700611 
L 417.675565 253.371468 
L 418.98069 245.919485 
L 420.5368 235.663076 
L 422.419191 221.684873 
L 424.853751 201.822128 
L 428.995012 165.864536 
L 433.613146 126.38148 
L 436.47438 103.823817 
L 438.90894 86.347056 
L 441.092514 72.24384 
L 443.0753 60.837861 
L 444.932592 51.418925 
L 446.639294 43.866059 
L 448.245601 37.727284 
L 449.751514 32.821417 
L 451.157033 28.973932 
L 452.462158 26.021242 
L 453.691987 23.772382 
L 454.821422 22.151091 
L 455.875561 21.010615 
L 456.854405 20.264443 
L 457.783051 19.826677 
L 458.686599 19.645454 
L 459.565048 19.69332 
L 460.468596 19.965303 
L 461.422341 20.488609 
L 462.451382 21.314343 
L 463.580817 22.518272 
L 464.810646 24.164664 
L 466.165967 26.359093 
L 467.671881 29.230803 
L 469.353484 32.930258 
L 471.235875 37.624176 
L 473.369252 43.560428 
L 475.82891 51.088891 
L 478.740342 60.752843 
L 482.379632 73.653587 
L 487.876215 94.063861 
L 496.761102 127.008494 
L 501.329039 143.045042 
L 505.29461 156.178548 
L 508.958998 167.561886 
L 512.422599 177.608002 
L 515.735607 186.547802 
L 518.948222 194.587546 
L 522.085541 201.84769 
L 525.147564 208.383856 
L 528.184489 214.348356 
L 531.171217 219.732266 
L 534.157945 224.661678 
L 537.119574 229.125574 
L 540.081203 233.192666 
L 543.067931 236.918604 
L 546.079757 240.320662 
L 549.116682 243.41693 
L 552.203803 246.247781 
L 555.341122 248.82511 
L 558.553737 251.17918 
L 561.866746 253.333097 
L 565.305248 255.304089 
L 568.89434 257.104683 
L 572.659123 258.743806 
L 576.649793 260.236496 
L 580.891448 261.583486 
L 585.459385 262.797738 
L 590.403799 263.879256 
L 595.850185 264.838992 
L 601.898936 265.675134 
L 608.750841 266.393449 
L 616.707082 266.997739 
L 626.194335 267.487802 
L 638.040851 267.866996 
L 653.852939 268.136851 
L 666.577905 268.246902 
L 666.577905 268.246902 
" clip-path="url(#p0f3123903c)" style="fill: none; stroke: #59a932; stroke-width: 3; stroke-linecap: square"/>
   </g>
   <g id="patch_9">
    <path d="M 403.069463 280.812 
L 403.069463 7.2 
" style="fill: none; stroke: #343434; stroke-width: 0.8; stroke-linejoin: miter; stroke-linecap: square"/>
   </g>
   <g id="patch_10">
    <path d="M 679.125926 280.812 
L 679.125926 7.2 
" style="fill: none; stroke: #343434; stroke-width: 0.8; stroke-linejoin: miter; stroke-linecap: square"/>
   </g>
   <g id="patch_11">
    <path d="M 403.069463 280.812 
L 679.125926 280.812 
" style="fill: none; stroke: #343434; stroke-width: 0.8; stroke-linejoin: miter; stroke-linecap: square"/>
   </g>
   <g id="patch_12">
    <path d="M 403.069463 7.2 
L 679.125926 7.2 
" style="fill: none; stroke: #343434; stroke-width: 0.8; stroke-linejoin: miter; stroke-linecap: square"/>
   </g>
   <g id="legend_2">
    <g id="patch_13">
     <path d="M 488.174207 72.2 
L 670.025926 72.2 
Q 672.625926 72.2 672.625926 69.6 
L 672.625926 16.3 
Q 672.625926 13.7 670.025926 13.7 
L 488.174207 13.7 
Q 485.574207 13.7 485.574207 16.3 
L 485.574207 69.6 
Q 485.574207 72.2 488.174207 72.2 
z
" style="fill: #ffffff; opacity: 0.8; stroke: #cccccc; stroke-linejoin: miter"/>
    </g>
    <g id="line2d_52">
     <path d="M 490.774207 23.527187 
L 503.774207 23.527187 
L 516.774207 23.527187 
" style="fill: none; stroke: #c46d3a; stroke-width: 3; stroke-linecap: square"/>
    </g>
    <g id="text_28">
     <!-- 0.0°C -->
     <g style="fill: #343434" transform="translate(527.174207 28.077187) scale(0.13 -0.13)">
      <use xlink:href="#SourceSansPro-SemiBold-30"/>
      <use xlink:href="#SourceSansPro-SemiBold-2e" x="51.299988"/>
      <use xlink:href="#SourceSansPro-SemiBold-30" x="78.799973"/>
      <use xlink:href="#SourceSansPro-SemiBold-b0" x="130.09996"/>
      <use xlink:href="#SourceSansPro-SemiBold-43" x="164.899948"/>
     </g>
    </g>
    <g id="line2d_53">
     <path d="M 490.774207 41.727187 
L 503.774207 41.727187 
L 516.774207 41.727187 
" style="fill: none; stroke: #ff5f00; stroke-width: 3; stroke-linecap: square"/>
    </g>
    <g id="text_29">
     <!-- 25.0°C -->
     <g style="fill: #343434" transform="translate(527.174207 46.277187) scale(0.13 -0.13)">
      <use xlink:href="#SourceSansPro-SemiBold-32"/>
      <use xlink:href="#SourceSansPro-SemiBold-35" x="51.299988"/>
      <use xlink:href="#SourceSansPro-SemiBold-2e" x="102.599976"/>
      <use xlink:href="#SourceSansPro-SemiBold-30" x="130.09996"/>
      <use xlink:href="#SourceSansPro-SemiBold-b0" x="181.399948"/>
      <use xlink:href="#SourceSansPro-SemiBold-43" x="216.199936"/>
     </g>
    </g>
    <g id="line2d_54">
     <path d="M 490.774207 59.927188 
L 503.774207 59.927188 
L 516.774207 59.927188 
" style="fill: none; stroke: #b6364f; stroke-width: 3; stroke-linecap: square"/>
    </g>
    <g id="text_30">
     <!-- 50.0°C -->
     <g style="fill: #343434" transform="translate(527.174207 64.477188) scale(0.13 -0.13)">
      <use xlink:href="#SourceSansPro-SemiBold-35"/>
      <use xlink:href="#SourceSansPro-SemiBold-30" x="51.299988"/>
      <use xlink:href="#SourceSansPro-SemiBold-2e" x="102.599976"/>
      <use xlink:href="#SourceSansPro-SemiBold-30" x="130.09996"/>
      <use xlink:href="#SourceSansPro-SemiBold-b0" x="181.399948"/>
      <use xlink:href="#SourceSansPro-SemiBold-43" x="216.199936"/>
     </g>
    </g>
    <g id="line2d_55">
     <path d="M 588.765769 23.527187 
L 601.765769 23.527187 
L 614.765769 23.527187 
" style="fill: none; stroke: #f30030; stroke-width: 3; stroke-linecap: square"/>
    </g>
    <g id="text_31">
     <!-- 75.0°C -->
     <g style="fill: #343434" transform="translate(625.165769 28.077187) scale(0.13 -0.13)">
      <use xlink:href="#SourceSansPro-SemiBold-37"/>
      <use xlink:href="#SourceSansPro-SemiBold-35" x="51.299988"/>
      <use xlink:href="#SourceSansPro-SemiBold-2e" x="102.599976"/>
      <use xlink:href="#SourceSansPro-SemiBold-30" x="130.09996"/>
      <use xlink:href="#SourceSansPro-SemiBold-b0" x="181.399948"/>
      <use xlink:href="#SourceSansPro-SemiBold-43" x="216.199936"/>
     </g>
    </g>
    <g id="line2d_56">
     <path d="M 588.765769 41.727187 
L 601.765769 41.727187 
L 614.765769 41.727187 
" style="fill: none; stroke: #59a932; stroke-width: 3; stroke-linecap: square"/>
    </g>
    <g id="text_32">
     <!-- 100.0°C -->
     <g style="fill: #343434" transform="translate(625.165769 46.277187) scale(0.13 -0.13)">
      <use xlink:href="#SourceSansPro-SemiBold-31"/>
      <use xlink:href="#SourceSansPro-SemiBold-30" x="51.299988"/>
      <use xlink:href="#SourceSansPro-SemiBold-30" x="102.599976"/>
      <use xlink:href="#SourceSansPro-SemiBold-2e" x="153.899963"/>
      <use xlink:href="#SourceSansPro-SemiBold-30" x="181.399948"/>
      <use xlink:href="#SourceSansPro-SemiBold-b0" x="232.699936"/>
      <use xlink:href="#SourceSansPro-SemiBold-43" x="267.499924"/>
     </g>
    </g>
   </g>
  </g>
 </g>
 <defs>
  <clipPath id="pc018fca5da">
   <rect x="53.335" y="7.2" width="276.056463" height="273.612"/>
  </clipPath>
  <clipPath id="p0f3123903c">
   <rect x="403.069463" y="7.2" width="276.056463" height="273.612"/>
  </clipPath>
 </defs>
</svg>
